<mxfile host="app.diagrams.net" modified="2021-11-11T14:50:49.214Z" agent="5.0 (Windows NT 10.0; Win64; x64) AppleWebKit/537.36 (KHTML, like Gecko) Chrome/95.0.4638.69 Safari/537.36" etag="d7Vfm-fL-t8zqYR_lXd4" version="15.7.0" type="github" pages="5">
  <diagram id="vl2vvdz3FSyHcrTM7ond" name="C. XOR">
    <mxGraphModel dx="1038" dy="543" grid="1" gridSize="10" guides="1" tooltips="1" connect="1" arrows="1" fold="1" page="1" pageScale="1" pageWidth="1169" pageHeight="827" math="0" shadow="0">
      <root>
        <mxCell id="0" />
        <mxCell id="1" parent="0" />
        <mxCell id="BuNdgs6e5HfFcdZizpzN-15" style="edgeStyle=orthogonalEdgeStyle;rounded=0;orthogonalLoop=1;jettySize=auto;html=1;exitX=1;exitY=0.5;exitDx=0;exitDy=0;exitPerimeter=0;entryX=0;entryY=0.25;entryDx=0;entryDy=0;entryPerimeter=0;endArrow=none;endFill=0;" parent="1" source="BuNdgs6e5HfFcdZizpzN-12" target="BuNdgs6e5HfFcdZizpzN-14" edge="1">
          <mxGeometry relative="1" as="geometry" />
        </mxCell>
        <mxCell id="BuNdgs6e5HfFcdZizpzN-37" style="edgeStyle=orthogonalEdgeStyle;rounded=0;orthogonalLoop=1;jettySize=auto;html=1;exitX=0;exitY=0.75;exitDx=0;exitDy=0;exitPerimeter=0;fontSize=19;endArrow=none;endFill=0;" parent="1" source="BuNdgs6e5HfFcdZizpzN-12" edge="1">
          <mxGeometry relative="1" as="geometry">
            <mxPoint x="330" y="165" as="targetPoint" />
          </mxGeometry>
        </mxCell>
        <mxCell id="BuNdgs6e5HfFcdZizpzN-12" value="" style="verticalLabelPosition=bottom;shadow=0;dashed=0;align=center;html=1;verticalAlign=top;shape=mxgraph.electrical.logic_gates.logic_gate;operation=and;negating=1;negSize=0.15;" parent="1" vertex="1">
          <mxGeometry x="450" y="120" width="100" height="60" as="geometry" />
        </mxCell>
        <mxCell id="BuNdgs6e5HfFcdZizpzN-16" style="edgeStyle=orthogonalEdgeStyle;rounded=0;orthogonalLoop=1;jettySize=auto;html=1;exitX=1;exitY=0.5;exitDx=0;exitDy=0;exitPerimeter=0;entryX=0;entryY=0.75;entryDx=0;entryDy=0;entryPerimeter=0;endArrow=none;endFill=0;" parent="1" source="BuNdgs6e5HfFcdZizpzN-13" target="BuNdgs6e5HfFcdZizpzN-14" edge="1">
          <mxGeometry relative="1" as="geometry" />
        </mxCell>
        <mxCell id="BuNdgs6e5HfFcdZizpzN-38" style="edgeStyle=orthogonalEdgeStyle;rounded=0;orthogonalLoop=1;jettySize=auto;html=1;exitX=0;exitY=0.25;exitDx=0;exitDy=0;exitPerimeter=0;fontSize=19;endArrow=none;endFill=0;" parent="1" source="BuNdgs6e5HfFcdZizpzN-13" edge="1">
          <mxGeometry relative="1" as="geometry">
            <mxPoint x="250" y="225" as="targetPoint" />
          </mxGeometry>
        </mxCell>
        <mxCell id="BuNdgs6e5HfFcdZizpzN-39" style="edgeStyle=orthogonalEdgeStyle;rounded=0;orthogonalLoop=1;jettySize=auto;html=1;exitX=0;exitY=0.75;exitDx=0;exitDy=0;exitPerimeter=0;fontSize=19;endArrow=none;endFill=0;" parent="1" source="BuNdgs6e5HfFcdZizpzN-13" edge="1">
          <mxGeometry relative="1" as="geometry">
            <mxPoint x="350" y="255" as="targetPoint" />
          </mxGeometry>
        </mxCell>
        <mxCell id="BuNdgs6e5HfFcdZizpzN-13" value="" style="verticalLabelPosition=bottom;shadow=0;dashed=0;align=center;html=1;verticalAlign=top;shape=mxgraph.electrical.logic_gates.logic_gate;operation=and;negating=1;negSize=0.15;" parent="1" vertex="1">
          <mxGeometry x="450" y="210" width="100" height="60" as="geometry" />
        </mxCell>
        <mxCell id="BuNdgs6e5HfFcdZizpzN-40" style="edgeStyle=orthogonalEdgeStyle;rounded=0;orthogonalLoop=1;jettySize=auto;html=1;exitX=1;exitY=0.5;exitDx=0;exitDy=0;exitPerimeter=0;fontSize=19;endArrow=none;endFill=0;" parent="1" source="BuNdgs6e5HfFcdZizpzN-14" edge="1">
          <mxGeometry relative="1" as="geometry">
            <mxPoint x="760" y="190" as="targetPoint" />
          </mxGeometry>
        </mxCell>
        <mxCell id="BuNdgs6e5HfFcdZizpzN-14" value="" style="verticalLabelPosition=bottom;shadow=0;dashed=0;align=center;html=1;verticalAlign=top;shape=mxgraph.electrical.logic_gates.logic_gate;operation=and;negating=1;negSize=0.15;" parent="1" vertex="1">
          <mxGeometry x="590" y="160" width="100" height="60" as="geometry" />
        </mxCell>
        <mxCell id="BuNdgs6e5HfFcdZizpzN-18" value="" style="endArrow=none;html=1;rounded=0;" parent="1" edge="1">
          <mxGeometry width="50" height="50" relative="1" as="geometry">
            <mxPoint x="250" y="400" as="sourcePoint" />
            <mxPoint x="250" y="60" as="targetPoint" />
          </mxGeometry>
        </mxCell>
        <mxCell id="BuNdgs6e5HfFcdZizpzN-20" value="" style="endArrow=none;html=1;rounded=0;startArrow=none;" parent="1" source="BuNdgs6e5HfFcdZizpzN-21" edge="1">
          <mxGeometry width="50" height="50" relative="1" as="geometry">
            <mxPoint x="270" y="400" as="sourcePoint" />
            <mxPoint x="270" y="100" as="targetPoint" />
          </mxGeometry>
        </mxCell>
        <mxCell id="BuNdgs6e5HfFcdZizpzN-21" value="" style="verticalLabelPosition=bottom;shadow=0;dashed=0;align=center;html=1;verticalAlign=top;shape=mxgraph.electrical.logic_gates.inverting_contact;" parent="1" vertex="1">
          <mxGeometry x="265" y="98" width="10" height="10" as="geometry" />
        </mxCell>
        <mxCell id="BuNdgs6e5HfFcdZizpzN-22" value="" style="endArrow=none;html=1;rounded=0;" parent="1" target="BuNdgs6e5HfFcdZizpzN-21" edge="1">
          <mxGeometry width="50" height="50" relative="1" as="geometry">
            <mxPoint x="270" y="400" as="sourcePoint" />
            <mxPoint x="270" y="100" as="targetPoint" />
          </mxGeometry>
        </mxCell>
        <mxCell id="BuNdgs6e5HfFcdZizpzN-24" value="" style="endArrow=classic;html=1;rounded=0;entryX=0.1;entryY=0.5;entryDx=0;entryDy=0;entryPerimeter=0;" parent="1" edge="1">
          <mxGeometry width="50" height="50" relative="1" as="geometry">
            <mxPoint x="270" y="80" as="sourcePoint" />
            <mxPoint x="270" y="100" as="targetPoint" />
          </mxGeometry>
        </mxCell>
        <mxCell id="BuNdgs6e5HfFcdZizpzN-26" value="" style="endArrow=none;html=1;rounded=0;" parent="1" edge="1">
          <mxGeometry width="50" height="50" relative="1" as="geometry">
            <mxPoint x="250" y="80" as="sourcePoint" />
            <mxPoint x="270" y="80" as="targetPoint" />
          </mxGeometry>
        </mxCell>
        <mxCell id="BuNdgs6e5HfFcdZizpzN-28" value="&lt;b&gt;&lt;font style=&quot;font-size: 19px&quot;&gt;A&lt;/font&gt;&lt;/b&gt;" style="text;html=1;strokeColor=none;fillColor=none;align=center;verticalAlign=middle;whiteSpace=wrap;rounded=0;" parent="1" vertex="1">
          <mxGeometry x="220" y="33" width="60" height="30" as="geometry" />
        </mxCell>
        <mxCell id="BuNdgs6e5HfFcdZizpzN-29" value="" style="endArrow=none;html=1;rounded=0;" parent="1" edge="1">
          <mxGeometry width="50" height="50" relative="1" as="geometry">
            <mxPoint x="330" y="400" as="sourcePoint" />
            <mxPoint x="330" y="60" as="targetPoint" />
          </mxGeometry>
        </mxCell>
        <mxCell id="BuNdgs6e5HfFcdZizpzN-30" value="" style="endArrow=none;html=1;rounded=0;startArrow=none;" parent="1" source="BuNdgs6e5HfFcdZizpzN-31" edge="1">
          <mxGeometry width="50" height="50" relative="1" as="geometry">
            <mxPoint x="350" y="400" as="sourcePoint" />
            <mxPoint x="350" y="100" as="targetPoint" />
          </mxGeometry>
        </mxCell>
        <mxCell id="BuNdgs6e5HfFcdZizpzN-31" value="" style="verticalLabelPosition=bottom;shadow=0;dashed=0;align=center;html=1;verticalAlign=top;shape=mxgraph.electrical.logic_gates.inverting_contact;" parent="1" vertex="1">
          <mxGeometry x="345" y="98" width="10" height="10" as="geometry" />
        </mxCell>
        <mxCell id="BuNdgs6e5HfFcdZizpzN-32" value="" style="endArrow=none;html=1;rounded=0;" parent="1" target="BuNdgs6e5HfFcdZizpzN-31" edge="1">
          <mxGeometry width="50" height="50" relative="1" as="geometry">
            <mxPoint x="350" y="400" as="sourcePoint" />
            <mxPoint x="350" y="100" as="targetPoint" />
          </mxGeometry>
        </mxCell>
        <mxCell id="BuNdgs6e5HfFcdZizpzN-33" value="" style="endArrow=classic;html=1;rounded=0;entryX=0.1;entryY=0.5;entryDx=0;entryDy=0;entryPerimeter=0;" parent="1" edge="1">
          <mxGeometry width="50" height="50" relative="1" as="geometry">
            <mxPoint x="350" y="80" as="sourcePoint" />
            <mxPoint x="350" y="100" as="targetPoint" />
          </mxGeometry>
        </mxCell>
        <mxCell id="BuNdgs6e5HfFcdZizpzN-34" value="" style="endArrow=none;html=1;rounded=0;" parent="1" edge="1">
          <mxGeometry width="50" height="50" relative="1" as="geometry">
            <mxPoint x="330" y="80" as="sourcePoint" />
            <mxPoint x="350" y="80" as="targetPoint" />
          </mxGeometry>
        </mxCell>
        <mxCell id="BuNdgs6e5HfFcdZizpzN-35" value="&lt;span style=&quot;font-size: 19px&quot;&gt;&lt;b&gt;B&lt;/b&gt;&lt;/span&gt;" style="text;html=1;strokeColor=none;fillColor=none;align=center;verticalAlign=middle;whiteSpace=wrap;rounded=0;" parent="1" vertex="1">
          <mxGeometry x="300" y="33" width="60" height="30" as="geometry" />
        </mxCell>
        <mxCell id="BuNdgs6e5HfFcdZizpzN-36" value="" style="endArrow=none;html=1;rounded=0;fontSize=19;entryX=0;entryY=0.25;entryDx=0;entryDy=0;entryPerimeter=0;" parent="1" target="BuNdgs6e5HfFcdZizpzN-12" edge="1">
          <mxGeometry width="50" height="50" relative="1" as="geometry">
            <mxPoint x="270" y="135" as="sourcePoint" />
            <mxPoint x="610" y="160" as="targetPoint" />
          </mxGeometry>
        </mxCell>
      </root>
    </mxGraphModel>
  </diagram>
  <diagram id="jYS3l3dOM72XO1uqCdtn" name="D. Soute de navire">
    <mxGraphModel dx="1038" dy="543" grid="1" gridSize="10" guides="1" tooltips="1" connect="1" arrows="1" fold="1" page="1" pageScale="1" pageWidth="1169" pageHeight="827" math="1" shadow="0">
      <root>
        <mxCell id="WdH5pnYvqzsrqt0Eg6Ou-0" />
        <mxCell id="WdH5pnYvqzsrqt0Eg6Ou-1" parent="WdH5pnYvqzsrqt0Eg6Ou-0" />
        <mxCell id="WdH5pnYvqzsrqt0Eg6Ou-2" value="" style="endArrow=none;html=1;rounded=0;" parent="WdH5pnYvqzsrqt0Eg6Ou-1" edge="1">
          <mxGeometry width="50" height="50" relative="1" as="geometry">
            <mxPoint x="210" y="477" as="sourcePoint" />
            <mxPoint x="210" y="137" as="targetPoint" />
          </mxGeometry>
        </mxCell>
        <mxCell id="WdH5pnYvqzsrqt0Eg6Ou-3" value="" style="endArrow=none;html=1;rounded=0;startArrow=none;" parent="WdH5pnYvqzsrqt0Eg6Ou-1" source="WdH5pnYvqzsrqt0Eg6Ou-4" edge="1">
          <mxGeometry width="50" height="50" relative="1" as="geometry">
            <mxPoint x="230" y="477" as="sourcePoint" />
            <mxPoint x="230" y="177" as="targetPoint" />
          </mxGeometry>
        </mxCell>
        <mxCell id="WdH5pnYvqzsrqt0Eg6Ou-4" value="" style="verticalLabelPosition=bottom;shadow=0;dashed=0;align=center;html=1;verticalAlign=top;shape=mxgraph.electrical.logic_gates.inverting_contact;" parent="WdH5pnYvqzsrqt0Eg6Ou-1" vertex="1">
          <mxGeometry x="225" y="175" width="10" height="10" as="geometry" />
        </mxCell>
        <mxCell id="WdH5pnYvqzsrqt0Eg6Ou-5" value="" style="endArrow=none;html=1;rounded=0;" parent="WdH5pnYvqzsrqt0Eg6Ou-1" target="WdH5pnYvqzsrqt0Eg6Ou-4" edge="1">
          <mxGeometry width="50" height="50" relative="1" as="geometry">
            <mxPoint x="230" y="477" as="sourcePoint" />
            <mxPoint x="230" y="177" as="targetPoint" />
          </mxGeometry>
        </mxCell>
        <mxCell id="WdH5pnYvqzsrqt0Eg6Ou-6" value="" style="endArrow=classic;html=1;rounded=0;entryX=0.1;entryY=0.5;entryDx=0;entryDy=0;entryPerimeter=0;" parent="WdH5pnYvqzsrqt0Eg6Ou-1" edge="1">
          <mxGeometry width="50" height="50" relative="1" as="geometry">
            <mxPoint x="230" y="157" as="sourcePoint" />
            <mxPoint x="230" y="177" as="targetPoint" />
          </mxGeometry>
        </mxCell>
        <mxCell id="WdH5pnYvqzsrqt0Eg6Ou-7" value="" style="endArrow=none;html=1;rounded=0;" parent="WdH5pnYvqzsrqt0Eg6Ou-1" edge="1">
          <mxGeometry width="50" height="50" relative="1" as="geometry">
            <mxPoint x="210" y="157" as="sourcePoint" />
            <mxPoint x="230" y="157" as="targetPoint" />
          </mxGeometry>
        </mxCell>
        <mxCell id="WdH5pnYvqzsrqt0Eg6Ou-8" value="&lt;b&gt;&lt;font style=&quot;font-size: 19px&quot;&gt;I&lt;/font&gt;&lt;font style=&quot;font-size: 10px&quot;&gt;1&lt;/font&gt;&lt;/b&gt;" style="text;html=1;strokeColor=none;fillColor=none;align=center;verticalAlign=middle;whiteSpace=wrap;rounded=0;" parent="WdH5pnYvqzsrqt0Eg6Ou-1" vertex="1">
          <mxGeometry x="180" y="110" width="60" height="30" as="geometry" />
        </mxCell>
        <mxCell id="WdH5pnYvqzsrqt0Eg6Ou-9" value="" style="endArrow=none;html=1;rounded=0;" parent="WdH5pnYvqzsrqt0Eg6Ou-1" edge="1">
          <mxGeometry width="50" height="50" relative="1" as="geometry">
            <mxPoint x="300" y="477" as="sourcePoint" />
            <mxPoint x="300" y="137" as="targetPoint" />
          </mxGeometry>
        </mxCell>
        <mxCell id="WdH5pnYvqzsrqt0Eg6Ou-10" value="" style="endArrow=none;html=1;rounded=0;startArrow=none;" parent="WdH5pnYvqzsrqt0Eg6Ou-1" source="WdH5pnYvqzsrqt0Eg6Ou-11" edge="1">
          <mxGeometry width="50" height="50" relative="1" as="geometry">
            <mxPoint x="320" y="477" as="sourcePoint" />
            <mxPoint x="320" y="177" as="targetPoint" />
          </mxGeometry>
        </mxCell>
        <mxCell id="WdH5pnYvqzsrqt0Eg6Ou-11" value="" style="verticalLabelPosition=bottom;shadow=0;dashed=0;align=center;html=1;verticalAlign=top;shape=mxgraph.electrical.logic_gates.inverting_contact;" parent="WdH5pnYvqzsrqt0Eg6Ou-1" vertex="1">
          <mxGeometry x="315" y="175" width="10" height="10" as="geometry" />
        </mxCell>
        <mxCell id="WdH5pnYvqzsrqt0Eg6Ou-12" value="" style="endArrow=none;html=1;rounded=0;" parent="WdH5pnYvqzsrqt0Eg6Ou-1" target="WdH5pnYvqzsrqt0Eg6Ou-11" edge="1">
          <mxGeometry width="50" height="50" relative="1" as="geometry">
            <mxPoint x="320" y="477" as="sourcePoint" />
            <mxPoint x="320" y="177" as="targetPoint" />
          </mxGeometry>
        </mxCell>
        <mxCell id="WdH5pnYvqzsrqt0Eg6Ou-13" value="" style="endArrow=classic;html=1;rounded=0;entryX=0.1;entryY=0.5;entryDx=0;entryDy=0;entryPerimeter=0;" parent="WdH5pnYvqzsrqt0Eg6Ou-1" edge="1">
          <mxGeometry width="50" height="50" relative="1" as="geometry">
            <mxPoint x="320" y="157" as="sourcePoint" />
            <mxPoint x="320" y="177" as="targetPoint" />
          </mxGeometry>
        </mxCell>
        <mxCell id="WdH5pnYvqzsrqt0Eg6Ou-14" value="" style="endArrow=none;html=1;rounded=0;" parent="WdH5pnYvqzsrqt0Eg6Ou-1" edge="1">
          <mxGeometry width="50" height="50" relative="1" as="geometry">
            <mxPoint x="300" y="157" as="sourcePoint" />
            <mxPoint x="320" y="157" as="targetPoint" />
          </mxGeometry>
        </mxCell>
        <mxCell id="WdH5pnYvqzsrqt0Eg6Ou-15" value="&lt;b&gt;&lt;font style=&quot;font-size: 19px&quot;&gt;I&lt;/font&gt;&lt;font style=&quot;font-size: 10px&quot;&gt;3&lt;/font&gt;&lt;/b&gt;" style="text;html=1;strokeColor=none;fillColor=none;align=center;verticalAlign=middle;whiteSpace=wrap;rounded=0;" parent="WdH5pnYvqzsrqt0Eg6Ou-1" vertex="1">
          <mxGeometry x="270" y="110" width="60" height="30" as="geometry" />
        </mxCell>
        <mxCell id="WdH5pnYvqzsrqt0Eg6Ou-19" style="edgeStyle=orthogonalEdgeStyle;rounded=0;orthogonalLoop=1;jettySize=auto;html=1;exitX=0;exitY=0.75;exitDx=0;exitDy=0;exitPerimeter=0;fontSize=10;endArrow=none;endFill=0;" parent="WdH5pnYvqzsrqt0Eg6Ou-1" source="WdH5pnYvqzsrqt0Eg6Ou-16" edge="1">
          <mxGeometry relative="1" as="geometry">
            <mxPoint x="320" y="255" as="targetPoint" />
          </mxGeometry>
        </mxCell>
        <mxCell id="WdH5pnYvqzsrqt0Eg6Ou-20" style="edgeStyle=orthogonalEdgeStyle;rounded=0;orthogonalLoop=1;jettySize=auto;html=1;exitX=0;exitY=0.25;exitDx=0;exitDy=0;exitPerimeter=0;fontSize=10;endArrow=none;endFill=0;" parent="WdH5pnYvqzsrqt0Eg6Ou-1" source="WdH5pnYvqzsrqt0Eg6Ou-16" edge="1">
          <mxGeometry relative="1" as="geometry">
            <mxPoint x="230" y="225" as="targetPoint" />
          </mxGeometry>
        </mxCell>
        <mxCell id="WdH5pnYvqzsrqt0Eg6Ou-24" style="edgeStyle=orthogonalEdgeStyle;rounded=0;orthogonalLoop=1;jettySize=auto;html=1;exitX=1;exitY=0.5;exitDx=0;exitDy=0;exitPerimeter=0;entryX=0;entryY=0.25;entryDx=0;entryDy=0;entryPerimeter=0;fontSize=10;endArrow=none;endFill=0;" parent="WdH5pnYvqzsrqt0Eg6Ou-1" source="WdH5pnYvqzsrqt0Eg6Ou-16" target="WdH5pnYvqzsrqt0Eg6Ou-18" edge="1">
          <mxGeometry relative="1" as="geometry" />
        </mxCell>
        <mxCell id="WdH5pnYvqzsrqt0Eg6Ou-16" value="" style="verticalLabelPosition=bottom;shadow=0;dashed=0;align=center;html=1;verticalAlign=top;shape=mxgraph.electrical.logic_gates.logic_gate;operation=and;fontSize=10;" parent="WdH5pnYvqzsrqt0Eg6Ou-1" vertex="1">
          <mxGeometry x="370" y="210" width="100" height="60" as="geometry" />
        </mxCell>
        <mxCell id="WdH5pnYvqzsrqt0Eg6Ou-21" style="edgeStyle=orthogonalEdgeStyle;rounded=0;orthogonalLoop=1;jettySize=auto;html=1;exitX=0;exitY=0.25;exitDx=0;exitDy=0;exitPerimeter=0;fontSize=10;endArrow=none;endFill=0;" parent="WdH5pnYvqzsrqt0Eg6Ou-1" source="WdH5pnYvqzsrqt0Eg6Ou-17" edge="1">
          <mxGeometry relative="1" as="geometry">
            <mxPoint x="210" y="315" as="targetPoint" />
          </mxGeometry>
        </mxCell>
        <mxCell id="WdH5pnYvqzsrqt0Eg6Ou-22" style="edgeStyle=orthogonalEdgeStyle;rounded=0;orthogonalLoop=1;jettySize=auto;html=1;exitX=0;exitY=0.75;exitDx=0;exitDy=0;exitPerimeter=0;fontSize=10;endArrow=none;endFill=0;" parent="WdH5pnYvqzsrqt0Eg6Ou-1" source="WdH5pnYvqzsrqt0Eg6Ou-17" edge="1">
          <mxGeometry relative="1" as="geometry">
            <mxPoint x="300" y="345" as="targetPoint" />
            <Array as="points">
              <mxPoint x="330" y="345" />
              <mxPoint x="330" y="345" />
            </Array>
          </mxGeometry>
        </mxCell>
        <mxCell id="WdH5pnYvqzsrqt0Eg6Ou-23" style="edgeStyle=orthogonalEdgeStyle;rounded=0;orthogonalLoop=1;jettySize=auto;html=1;exitX=1;exitY=0.5;exitDx=0;exitDy=0;exitPerimeter=0;entryX=0;entryY=0.75;entryDx=0;entryDy=0;entryPerimeter=0;fontSize=10;endArrow=none;endFill=0;" parent="WdH5pnYvqzsrqt0Eg6Ou-1" source="WdH5pnYvqzsrqt0Eg6Ou-17" target="WdH5pnYvqzsrqt0Eg6Ou-18" edge="1">
          <mxGeometry relative="1" as="geometry" />
        </mxCell>
        <mxCell id="WdH5pnYvqzsrqt0Eg6Ou-17" value="" style="verticalLabelPosition=bottom;shadow=0;dashed=0;align=center;html=1;verticalAlign=top;shape=mxgraph.electrical.logic_gates.logic_gate;operation=and;fontSize=10;" parent="WdH5pnYvqzsrqt0Eg6Ou-1" vertex="1">
          <mxGeometry x="370" y="300" width="100" height="60" as="geometry" />
        </mxCell>
        <mxCell id="WdH5pnYvqzsrqt0Eg6Ou-18" value="" style="verticalLabelPosition=bottom;shadow=0;dashed=0;align=center;html=1;verticalAlign=top;shape=mxgraph.electrical.logic_gates.logic_gate;operation=or;fontSize=10;" parent="WdH5pnYvqzsrqt0Eg6Ou-1" vertex="1">
          <mxGeometry x="520" y="250" width="100" height="60" as="geometry" />
        </mxCell>
        <mxCell id="WdH5pnYvqzsrqt0Eg6Ou-25" value="AC" style="rounded=1;whiteSpace=wrap;html=1;align=center;fontSize=15;" parent="WdH5pnYvqzsrqt0Eg6Ou-1" vertex="1">
          <mxGeometry x="620" y="257.0000000000001" width="45" height="43" as="geometry" />
        </mxCell>
      </root>
    </mxGraphModel>
  </diagram>
  <diagram id="5psuAyvAjNTeCXp9ZSXa" name="E. Circuit de phares d&#39;une automobile">
    <mxGraphModel dx="1038" dy="543" grid="1" gridSize="10" guides="1" tooltips="1" connect="1" arrows="1" fold="1" page="1" pageScale="1" pageWidth="1169" pageHeight="827" math="0" shadow="0">
      <root>
        <mxCell id="4YyE0lmy6pTRSMPA2uO4-0" />
        <mxCell id="4YyE0lmy6pTRSMPA2uO4-1" parent="4YyE0lmy6pTRSMPA2uO4-0" />
        <mxCell id="4YyE0lmy6pTRSMPA2uO4-2" value="" style="endArrow=none;html=1;rounded=0;" edge="1" parent="4YyE0lmy6pTRSMPA2uO4-1">
          <mxGeometry width="50" height="50" relative="1" as="geometry">
            <mxPoint x="220" y="507" as="sourcePoint" />
            <mxPoint x="220" y="167" as="targetPoint" />
          </mxGeometry>
        </mxCell>
        <mxCell id="4YyE0lmy6pTRSMPA2uO4-3" value="" style="endArrow=none;html=1;rounded=0;startArrow=none;" edge="1" source="4YyE0lmy6pTRSMPA2uO4-4" parent="4YyE0lmy6pTRSMPA2uO4-1">
          <mxGeometry width="50" height="50" relative="1" as="geometry">
            <mxPoint x="240" y="507" as="sourcePoint" />
            <mxPoint x="240" y="207" as="targetPoint" />
          </mxGeometry>
        </mxCell>
        <mxCell id="4YyE0lmy6pTRSMPA2uO4-4" value="" style="verticalLabelPosition=bottom;shadow=0;dashed=0;align=center;html=1;verticalAlign=top;shape=mxgraph.electrical.logic_gates.inverting_contact;" vertex="1" parent="4YyE0lmy6pTRSMPA2uO4-1">
          <mxGeometry x="235" y="205" width="10" height="10" as="geometry" />
        </mxCell>
        <mxCell id="4YyE0lmy6pTRSMPA2uO4-5" value="" style="endArrow=none;html=1;rounded=0;" edge="1" target="4YyE0lmy6pTRSMPA2uO4-4" parent="4YyE0lmy6pTRSMPA2uO4-1">
          <mxGeometry width="50" height="50" relative="1" as="geometry">
            <mxPoint x="240" y="507" as="sourcePoint" />
            <mxPoint x="240" y="207" as="targetPoint" />
          </mxGeometry>
        </mxCell>
        <mxCell id="4YyE0lmy6pTRSMPA2uO4-6" value="" style="endArrow=classic;html=1;rounded=0;entryX=0.1;entryY=0.5;entryDx=0;entryDy=0;entryPerimeter=0;" edge="1" parent="4YyE0lmy6pTRSMPA2uO4-1">
          <mxGeometry width="50" height="50" relative="1" as="geometry">
            <mxPoint x="240" y="187" as="sourcePoint" />
            <mxPoint x="240" y="207" as="targetPoint" />
          </mxGeometry>
        </mxCell>
        <mxCell id="4YyE0lmy6pTRSMPA2uO4-7" value="" style="endArrow=none;html=1;rounded=0;" edge="1" parent="4YyE0lmy6pTRSMPA2uO4-1">
          <mxGeometry width="50" height="50" relative="1" as="geometry">
            <mxPoint x="220" y="187" as="sourcePoint" />
            <mxPoint x="240" y="187" as="targetPoint" />
          </mxGeometry>
        </mxCell>
        <mxCell id="4YyE0lmy6pTRSMPA2uO4-8" value="&lt;b&gt;&lt;font style=&quot;font-size: 19px&quot;&gt;v&lt;/font&gt;&lt;/b&gt;" style="text;html=1;strokeColor=none;fillColor=none;align=center;verticalAlign=middle;whiteSpace=wrap;rounded=0;" vertex="1" parent="4YyE0lmy6pTRSMPA2uO4-1">
          <mxGeometry x="190" y="140" width="60" height="30" as="geometry" />
        </mxCell>
        <mxCell id="4YyE0lmy6pTRSMPA2uO4-9" value="" style="endArrow=none;html=1;rounded=0;" edge="1" parent="4YyE0lmy6pTRSMPA2uO4-1">
          <mxGeometry width="50" height="50" relative="1" as="geometry">
            <mxPoint x="300" y="507" as="sourcePoint" />
            <mxPoint x="300" y="167" as="targetPoint" />
          </mxGeometry>
        </mxCell>
        <mxCell id="4YyE0lmy6pTRSMPA2uO4-10" value="" style="endArrow=none;html=1;rounded=0;startArrow=none;" edge="1" source="4YyE0lmy6pTRSMPA2uO4-11" parent="4YyE0lmy6pTRSMPA2uO4-1">
          <mxGeometry width="50" height="50" relative="1" as="geometry">
            <mxPoint x="320" y="507" as="sourcePoint" />
            <mxPoint x="320" y="207" as="targetPoint" />
          </mxGeometry>
        </mxCell>
        <mxCell id="4YyE0lmy6pTRSMPA2uO4-11" value="" style="verticalLabelPosition=bottom;shadow=0;dashed=0;align=center;html=1;verticalAlign=top;shape=mxgraph.electrical.logic_gates.inverting_contact;" vertex="1" parent="4YyE0lmy6pTRSMPA2uO4-1">
          <mxGeometry x="315" y="205" width="10" height="10" as="geometry" />
        </mxCell>
        <mxCell id="4YyE0lmy6pTRSMPA2uO4-12" value="" style="endArrow=none;html=1;rounded=0;" edge="1" target="4YyE0lmy6pTRSMPA2uO4-11" parent="4YyE0lmy6pTRSMPA2uO4-1">
          <mxGeometry width="50" height="50" relative="1" as="geometry">
            <mxPoint x="320" y="507" as="sourcePoint" />
            <mxPoint x="320" y="207" as="targetPoint" />
          </mxGeometry>
        </mxCell>
        <mxCell id="4YyE0lmy6pTRSMPA2uO4-13" value="" style="endArrow=classic;html=1;rounded=0;entryX=0.1;entryY=0.5;entryDx=0;entryDy=0;entryPerimeter=0;" edge="1" parent="4YyE0lmy6pTRSMPA2uO4-1">
          <mxGeometry width="50" height="50" relative="1" as="geometry">
            <mxPoint x="320" y="187" as="sourcePoint" />
            <mxPoint x="320" y="207" as="targetPoint" />
          </mxGeometry>
        </mxCell>
        <mxCell id="4YyE0lmy6pTRSMPA2uO4-14" value="" style="endArrow=none;html=1;rounded=0;" edge="1" parent="4YyE0lmy6pTRSMPA2uO4-1">
          <mxGeometry width="50" height="50" relative="1" as="geometry">
            <mxPoint x="300" y="187" as="sourcePoint" />
            <mxPoint x="320" y="187" as="targetPoint" />
          </mxGeometry>
        </mxCell>
        <mxCell id="4YyE0lmy6pTRSMPA2uO4-15" value="&lt;b&gt;&lt;font style=&quot;font-size: 19px&quot;&gt;c&lt;/font&gt;&lt;/b&gt;" style="text;html=1;strokeColor=none;fillColor=none;align=center;verticalAlign=middle;whiteSpace=wrap;rounded=0;" vertex="1" parent="4YyE0lmy6pTRSMPA2uO4-1">
          <mxGeometry x="270" y="140" width="60" height="30" as="geometry" />
        </mxCell>
        <mxCell id="4YyE0lmy6pTRSMPA2uO4-16" value="" style="endArrow=none;html=1;rounded=0;" edge="1" parent="4YyE0lmy6pTRSMPA2uO4-1">
          <mxGeometry width="50" height="50" relative="1" as="geometry">
            <mxPoint x="390" y="507" as="sourcePoint" />
            <mxPoint x="390" y="167" as="targetPoint" />
          </mxGeometry>
        </mxCell>
        <mxCell id="4YyE0lmy6pTRSMPA2uO4-17" value="" style="endArrow=none;html=1;rounded=0;startArrow=none;" edge="1" source="4YyE0lmy6pTRSMPA2uO4-18" parent="4YyE0lmy6pTRSMPA2uO4-1">
          <mxGeometry width="50" height="50" relative="1" as="geometry">
            <mxPoint x="410" y="507" as="sourcePoint" />
            <mxPoint x="410" y="207" as="targetPoint" />
          </mxGeometry>
        </mxCell>
        <mxCell id="4YyE0lmy6pTRSMPA2uO4-18" value="" style="verticalLabelPosition=bottom;shadow=0;dashed=0;align=center;html=1;verticalAlign=top;shape=mxgraph.electrical.logic_gates.inverting_contact;" vertex="1" parent="4YyE0lmy6pTRSMPA2uO4-1">
          <mxGeometry x="405" y="205" width="10" height="10" as="geometry" />
        </mxCell>
        <mxCell id="4YyE0lmy6pTRSMPA2uO4-19" value="" style="endArrow=none;html=1;rounded=0;" edge="1" target="4YyE0lmy6pTRSMPA2uO4-18" parent="4YyE0lmy6pTRSMPA2uO4-1">
          <mxGeometry width="50" height="50" relative="1" as="geometry">
            <mxPoint x="410" y="507" as="sourcePoint" />
            <mxPoint x="410" y="207" as="targetPoint" />
          </mxGeometry>
        </mxCell>
        <mxCell id="4YyE0lmy6pTRSMPA2uO4-20" value="" style="endArrow=classic;html=1;rounded=0;entryX=0.1;entryY=0.5;entryDx=0;entryDy=0;entryPerimeter=0;" edge="1" parent="4YyE0lmy6pTRSMPA2uO4-1">
          <mxGeometry width="50" height="50" relative="1" as="geometry">
            <mxPoint x="410" y="187" as="sourcePoint" />
            <mxPoint x="410" y="207" as="targetPoint" />
          </mxGeometry>
        </mxCell>
        <mxCell id="4YyE0lmy6pTRSMPA2uO4-21" value="" style="endArrow=none;html=1;rounded=0;" edge="1" parent="4YyE0lmy6pTRSMPA2uO4-1">
          <mxGeometry width="50" height="50" relative="1" as="geometry">
            <mxPoint x="390" y="187" as="sourcePoint" />
            <mxPoint x="410" y="187" as="targetPoint" />
          </mxGeometry>
        </mxCell>
        <mxCell id="4YyE0lmy6pTRSMPA2uO4-22" value="&lt;b&gt;&lt;font style=&quot;font-size: 19px&quot;&gt;r&lt;/font&gt;&lt;/b&gt;" style="text;html=1;strokeColor=none;fillColor=none;align=center;verticalAlign=middle;whiteSpace=wrap;rounded=0;" vertex="1" parent="4YyE0lmy6pTRSMPA2uO4-1">
          <mxGeometry x="360" y="140" width="60" height="30" as="geometry" />
        </mxCell>
        <mxCell id="4YyE0lmy6pTRSMPA2uO4-23" value="" style="endArrow=none;html=1;rounded=0;" edge="1" parent="4YyE0lmy6pTRSMPA2uO4-1">
          <mxGeometry width="50" height="50" relative="1" as="geometry">
            <mxPoint x="480" y="507" as="sourcePoint" />
            <mxPoint x="480" y="167" as="targetPoint" />
          </mxGeometry>
        </mxCell>
        <mxCell id="4YyE0lmy6pTRSMPA2uO4-24" value="" style="endArrow=none;html=1;rounded=0;startArrow=none;" edge="1" source="4YyE0lmy6pTRSMPA2uO4-25" parent="4YyE0lmy6pTRSMPA2uO4-1">
          <mxGeometry width="50" height="50" relative="1" as="geometry">
            <mxPoint x="500" y="507" as="sourcePoint" />
            <mxPoint x="500" y="207" as="targetPoint" />
          </mxGeometry>
        </mxCell>
        <mxCell id="4YyE0lmy6pTRSMPA2uO4-25" value="" style="verticalLabelPosition=bottom;shadow=0;dashed=0;align=center;html=1;verticalAlign=top;shape=mxgraph.electrical.logic_gates.inverting_contact;" vertex="1" parent="4YyE0lmy6pTRSMPA2uO4-1">
          <mxGeometry x="495" y="205" width="10" height="10" as="geometry" />
        </mxCell>
        <mxCell id="4YyE0lmy6pTRSMPA2uO4-26" value="" style="endArrow=none;html=1;rounded=0;" edge="1" target="4YyE0lmy6pTRSMPA2uO4-25" parent="4YyE0lmy6pTRSMPA2uO4-1">
          <mxGeometry width="50" height="50" relative="1" as="geometry">
            <mxPoint x="500" y="507" as="sourcePoint" />
            <mxPoint x="500" y="207" as="targetPoint" />
          </mxGeometry>
        </mxCell>
        <mxCell id="4YyE0lmy6pTRSMPA2uO4-27" value="" style="endArrow=classic;html=1;rounded=0;entryX=0.1;entryY=0.5;entryDx=0;entryDy=0;entryPerimeter=0;" edge="1" parent="4YyE0lmy6pTRSMPA2uO4-1">
          <mxGeometry width="50" height="50" relative="1" as="geometry">
            <mxPoint x="500" y="187" as="sourcePoint" />
            <mxPoint x="500" y="207" as="targetPoint" />
          </mxGeometry>
        </mxCell>
        <mxCell id="4YyE0lmy6pTRSMPA2uO4-28" value="" style="endArrow=none;html=1;rounded=0;" edge="1" parent="4YyE0lmy6pTRSMPA2uO4-1">
          <mxGeometry width="50" height="50" relative="1" as="geometry">
            <mxPoint x="480" y="187" as="sourcePoint" />
            <mxPoint x="500" y="187" as="targetPoint" />
          </mxGeometry>
        </mxCell>
        <mxCell id="4YyE0lmy6pTRSMPA2uO4-29" value="&lt;b&gt;&lt;font style=&quot;font-size: 19px&quot;&gt;a&lt;/font&gt;&lt;/b&gt;" style="text;html=1;strokeColor=none;fillColor=none;align=center;verticalAlign=middle;whiteSpace=wrap;rounded=0;" vertex="1" parent="4YyE0lmy6pTRSMPA2uO4-1">
          <mxGeometry x="450" y="140" width="60" height="30" as="geometry" />
        </mxCell>
        <mxCell id="4YyE0lmy6pTRSMPA2uO4-45" style="edgeStyle=orthogonalEdgeStyle;rounded=0;orthogonalLoop=1;jettySize=auto;html=1;exitX=0;exitY=0.25;exitDx=0;exitDy=0;exitPerimeter=0;endArrow=none;endFill=0;" edge="1" parent="4YyE0lmy6pTRSMPA2uO4-1" source="4YyE0lmy6pTRSMPA2uO4-30">
          <mxGeometry relative="1" as="geometry">
            <mxPoint x="220" y="230" as="targetPoint" />
          </mxGeometry>
        </mxCell>
        <mxCell id="4YyE0lmy6pTRSMPA2uO4-46" style="edgeStyle=orthogonalEdgeStyle;rounded=0;orthogonalLoop=1;jettySize=auto;html=1;exitX=0;exitY=0.75;exitDx=0;exitDy=0;exitPerimeter=0;endArrow=none;endFill=0;" edge="1" parent="4YyE0lmy6pTRSMPA2uO4-1" source="4YyE0lmy6pTRSMPA2uO4-30">
          <mxGeometry relative="1" as="geometry">
            <mxPoint x="480" y="260" as="targetPoint" />
          </mxGeometry>
        </mxCell>
        <mxCell id="4YyE0lmy6pTRSMPA2uO4-30" value="" style="verticalLabelPosition=bottom;shadow=0;dashed=0;align=center;html=1;verticalAlign=top;shape=mxgraph.electrical.logic_gates.logic_gate;operation=or;" vertex="1" parent="4YyE0lmy6pTRSMPA2uO4-1">
          <mxGeometry x="550" y="215" width="100" height="60" as="geometry" />
        </mxCell>
        <mxCell id="4YyE0lmy6pTRSMPA2uO4-40" style="edgeStyle=orthogonalEdgeStyle;rounded=0;orthogonalLoop=1;jettySize=auto;html=1;exitX=0;exitY=0.25;exitDx=0;exitDy=0;exitPerimeter=0;endArrow=none;endFill=0;" edge="1" parent="4YyE0lmy6pTRSMPA2uO4-1" source="4YyE0lmy6pTRSMPA2uO4-31">
          <mxGeometry relative="1" as="geometry">
            <mxPoint x="320" y="355" as="targetPoint" />
          </mxGeometry>
        </mxCell>
        <mxCell id="4YyE0lmy6pTRSMPA2uO4-41" style="edgeStyle=orthogonalEdgeStyle;rounded=0;orthogonalLoop=1;jettySize=auto;html=1;exitX=0;exitY=0.75;exitDx=0;exitDy=0;exitPerimeter=0;endArrow=none;endFill=0;" edge="1" parent="4YyE0lmy6pTRSMPA2uO4-1" source="4YyE0lmy6pTRSMPA2uO4-31">
          <mxGeometry relative="1" as="geometry">
            <mxPoint x="500" y="385" as="targetPoint" />
          </mxGeometry>
        </mxCell>
        <mxCell id="4YyE0lmy6pTRSMPA2uO4-31" value="" style="verticalLabelPosition=bottom;shadow=0;dashed=0;align=center;html=1;verticalAlign=top;shape=mxgraph.electrical.logic_gates.logic_gate;operation=and;" vertex="1" parent="4YyE0lmy6pTRSMPA2uO4-1">
          <mxGeometry x="550" y="340" width="100" height="60" as="geometry" />
        </mxCell>
        <mxCell id="4YyE0lmy6pTRSMPA2uO4-33" style="edgeStyle=orthogonalEdgeStyle;rounded=0;orthogonalLoop=1;jettySize=auto;html=1;exitX=0;exitY=0.75;exitDx=0;exitDy=0;exitPerimeter=0;endArrow=none;endFill=0;" edge="1" parent="4YyE0lmy6pTRSMPA2uO4-1" source="4YyE0lmy6pTRSMPA2uO4-32">
          <mxGeometry relative="1" as="geometry">
            <mxPoint x="390" y="475" as="targetPoint" />
          </mxGeometry>
        </mxCell>
        <mxCell id="4YyE0lmy6pTRSMPA2uO4-34" style="edgeStyle=orthogonalEdgeStyle;rounded=0;orthogonalLoop=1;jettySize=auto;html=1;exitX=0;exitY=0.25;exitDx=0;exitDy=0;exitPerimeter=0;endArrow=none;endFill=0;" edge="1" parent="4YyE0lmy6pTRSMPA2uO4-1" source="4YyE0lmy6pTRSMPA2uO4-32">
          <mxGeometry relative="1" as="geometry">
            <mxPoint x="320" y="445" as="targetPoint" />
          </mxGeometry>
        </mxCell>
        <mxCell id="4YyE0lmy6pTRSMPA2uO4-32" value="" style="verticalLabelPosition=bottom;shadow=0;dashed=0;align=center;html=1;verticalAlign=top;shape=mxgraph.electrical.logic_gates.logic_gate;operation=and;" vertex="1" parent="4YyE0lmy6pTRSMPA2uO4-1">
          <mxGeometry x="550" y="430" width="100" height="60" as="geometry" />
        </mxCell>
        <mxCell id="4YyE0lmy6pTRSMPA2uO4-35" value="A" style="rounded=1;whiteSpace=wrap;html=1;align=center;fontSize=15;" vertex="1" parent="4YyE0lmy6pTRSMPA2uO4-1">
          <mxGeometry x="650" y="439" width="45" height="43" as="geometry" />
        </mxCell>
        <mxCell id="4YyE0lmy6pTRSMPA2uO4-37" style="edgeStyle=orthogonalEdgeStyle;rounded=0;orthogonalLoop=1;jettySize=auto;html=1;exitX=0;exitY=0.5;exitDx=0;exitDy=0;endArrow=none;endFill=0;" edge="1" parent="4YyE0lmy6pTRSMPA2uO4-1" source="4YyE0lmy6pTRSMPA2uO4-36">
          <mxGeometry relative="1" as="geometry">
            <mxPoint x="300" y="312" as="targetPoint" />
          </mxGeometry>
        </mxCell>
        <mxCell id="4YyE0lmy6pTRSMPA2uO4-36" value="C" style="rounded=1;whiteSpace=wrap;html=1;align=center;fontSize=15;" vertex="1" parent="4YyE0lmy6pTRSMPA2uO4-1">
          <mxGeometry x="650" y="290" width="45" height="43" as="geometry" />
        </mxCell>
        <mxCell id="4YyE0lmy6pTRSMPA2uO4-42" value="" style="endArrow=none;html=1;rounded=0;" edge="1" parent="4YyE0lmy6pTRSMPA2uO4-1">
          <mxGeometry width="50" height="50" relative="1" as="geometry">
            <mxPoint x="390" y="370" as="sourcePoint" />
            <mxPoint x="570" y="369.5" as="targetPoint" />
          </mxGeometry>
        </mxCell>
        <mxCell id="4YyE0lmy6pTRSMPA2uO4-43" value="R" style="rounded=1;whiteSpace=wrap;html=1;align=center;fontSize=15;" vertex="1" parent="4YyE0lmy6pTRSMPA2uO4-1">
          <mxGeometry x="650" y="349" width="45" height="43" as="geometry" />
        </mxCell>
        <mxCell id="4YyE0lmy6pTRSMPA2uO4-47" value="" style="endArrow=none;html=1;rounded=0;" edge="1" parent="4YyE0lmy6pTRSMPA2uO4-1">
          <mxGeometry width="50" height="50" relative="1" as="geometry">
            <mxPoint x="300" y="240" as="sourcePoint" />
            <mxPoint x="570" y="240" as="targetPoint" />
          </mxGeometry>
        </mxCell>
        <mxCell id="4YyE0lmy6pTRSMPA2uO4-48" value="" style="endArrow=none;html=1;rounded=0;" edge="1" parent="4YyE0lmy6pTRSMPA2uO4-1">
          <mxGeometry width="50" height="50" relative="1" as="geometry">
            <mxPoint x="390" y="250" as="sourcePoint" />
            <mxPoint x="570" y="250" as="targetPoint" />
          </mxGeometry>
        </mxCell>
        <mxCell id="4YyE0lmy6pTRSMPA2uO4-49" value="V" style="rounded=1;whiteSpace=wrap;html=1;align=center;fontSize=15;" vertex="1" parent="4YyE0lmy6pTRSMPA2uO4-1">
          <mxGeometry x="650" y="224" width="45" height="43" as="geometry" />
        </mxCell>
      </root>
    </mxGraphModel>
  </diagram>
  <diagram id="teC_JoaJWIno77NG_mD4" name="F. Station de pompage">
    <mxGraphModel dx="1038" dy="543" grid="1" gridSize="10" guides="1" tooltips="1" connect="1" arrows="1" fold="1" page="1" pageScale="1" pageWidth="1169" pageHeight="827" math="0" shadow="0">
      <root>
        <mxCell id="FeAPPIAdGxHD5No5LUYg-0" />
        <mxCell id="FeAPPIAdGxHD5No5LUYg-1" parent="FeAPPIAdGxHD5No5LUYg-0" />
        <mxCell id="FeAPPIAdGxHD5No5LUYg-2" value="" style="endArrow=none;html=1;rounded=0;" edge="1" parent="FeAPPIAdGxHD5No5LUYg-1">
          <mxGeometry width="50" height="50" relative="1" as="geometry">
            <mxPoint x="170" y="650" as="sourcePoint" />
            <mxPoint x="170" y="117" as="targetPoint" />
          </mxGeometry>
        </mxCell>
        <mxCell id="FeAPPIAdGxHD5No5LUYg-3" value="" style="endArrow=none;html=1;rounded=0;startArrow=none;" edge="1" source="FeAPPIAdGxHD5No5LUYg-4" parent="FeAPPIAdGxHD5No5LUYg-1">
          <mxGeometry width="50" height="50" relative="1" as="geometry">
            <mxPoint x="190" y="457" as="sourcePoint" />
            <mxPoint x="190" y="157" as="targetPoint" />
          </mxGeometry>
        </mxCell>
        <mxCell id="FeAPPIAdGxHD5No5LUYg-4" value="" style="verticalLabelPosition=bottom;shadow=0;dashed=0;align=center;html=1;verticalAlign=top;shape=mxgraph.electrical.logic_gates.inverting_contact;" vertex="1" parent="FeAPPIAdGxHD5No5LUYg-1">
          <mxGeometry x="185" y="155" width="10" height="10" as="geometry" />
        </mxCell>
        <mxCell id="FeAPPIAdGxHD5No5LUYg-5" value="" style="endArrow=none;html=1;rounded=0;" edge="1" target="FeAPPIAdGxHD5No5LUYg-4" parent="FeAPPIAdGxHD5No5LUYg-1">
          <mxGeometry width="50" height="50" relative="1" as="geometry">
            <mxPoint x="190" y="650" as="sourcePoint" />
            <mxPoint x="190" y="157" as="targetPoint" />
          </mxGeometry>
        </mxCell>
        <mxCell id="FeAPPIAdGxHD5No5LUYg-6" value="" style="endArrow=classic;html=1;rounded=0;entryX=0.1;entryY=0.5;entryDx=0;entryDy=0;entryPerimeter=0;" edge="1" parent="FeAPPIAdGxHD5No5LUYg-1">
          <mxGeometry width="50" height="50" relative="1" as="geometry">
            <mxPoint x="190" y="137" as="sourcePoint" />
            <mxPoint x="190" y="157" as="targetPoint" />
          </mxGeometry>
        </mxCell>
        <mxCell id="FeAPPIAdGxHD5No5LUYg-7" value="" style="endArrow=none;html=1;rounded=0;" edge="1" parent="FeAPPIAdGxHD5No5LUYg-1">
          <mxGeometry width="50" height="50" relative="1" as="geometry">
            <mxPoint x="170" y="137" as="sourcePoint" />
            <mxPoint x="190" y="137" as="targetPoint" />
          </mxGeometry>
        </mxCell>
        <mxCell id="FeAPPIAdGxHD5No5LUYg-8" value="&lt;b&gt;&lt;font style=&quot;font-size: 19px&quot;&gt;P&lt;/font&gt;&lt;font style=&quot;font-size: 10px&quot;&gt;1&lt;/font&gt;&lt;/b&gt;" style="text;html=1;strokeColor=none;fillColor=none;align=center;verticalAlign=middle;whiteSpace=wrap;rounded=0;" vertex="1" parent="FeAPPIAdGxHD5No5LUYg-1">
          <mxGeometry x="140" y="90" width="60" height="30" as="geometry" />
        </mxCell>
        <mxCell id="FeAPPIAdGxHD5No5LUYg-9" value="" style="endArrow=none;html=1;rounded=0;" edge="1" parent="FeAPPIAdGxHD5No5LUYg-1">
          <mxGeometry width="50" height="50" relative="1" as="geometry">
            <mxPoint x="260" y="650" as="sourcePoint" />
            <mxPoint x="260" y="117" as="targetPoint" />
          </mxGeometry>
        </mxCell>
        <mxCell id="FeAPPIAdGxHD5No5LUYg-10" value="" style="endArrow=none;html=1;rounded=0;startArrow=none;" edge="1" source="FeAPPIAdGxHD5No5LUYg-11" parent="FeAPPIAdGxHD5No5LUYg-1">
          <mxGeometry width="50" height="50" relative="1" as="geometry">
            <mxPoint x="280" y="457" as="sourcePoint" />
            <mxPoint x="280" y="157" as="targetPoint" />
          </mxGeometry>
        </mxCell>
        <mxCell id="FeAPPIAdGxHD5No5LUYg-11" value="" style="verticalLabelPosition=bottom;shadow=0;dashed=0;align=center;html=1;verticalAlign=top;shape=mxgraph.electrical.logic_gates.inverting_contact;" vertex="1" parent="FeAPPIAdGxHD5No5LUYg-1">
          <mxGeometry x="275" y="155" width="10" height="10" as="geometry" />
        </mxCell>
        <mxCell id="FeAPPIAdGxHD5No5LUYg-12" value="" style="endArrow=none;html=1;rounded=0;" edge="1" target="FeAPPIAdGxHD5No5LUYg-11" parent="FeAPPIAdGxHD5No5LUYg-1">
          <mxGeometry width="50" height="50" relative="1" as="geometry">
            <mxPoint x="280" y="650" as="sourcePoint" />
            <mxPoint x="280" y="157" as="targetPoint" />
          </mxGeometry>
        </mxCell>
        <mxCell id="FeAPPIAdGxHD5No5LUYg-13" value="" style="endArrow=classic;html=1;rounded=0;entryX=0.1;entryY=0.5;entryDx=0;entryDy=0;entryPerimeter=0;" edge="1" parent="FeAPPIAdGxHD5No5LUYg-1">
          <mxGeometry width="50" height="50" relative="1" as="geometry">
            <mxPoint x="280" y="137" as="sourcePoint" />
            <mxPoint x="280" y="157" as="targetPoint" />
          </mxGeometry>
        </mxCell>
        <mxCell id="FeAPPIAdGxHD5No5LUYg-14" value="" style="endArrow=none;html=1;rounded=0;" edge="1" parent="FeAPPIAdGxHD5No5LUYg-1">
          <mxGeometry width="50" height="50" relative="1" as="geometry">
            <mxPoint x="260" y="137" as="sourcePoint" />
            <mxPoint x="280" y="137" as="targetPoint" />
          </mxGeometry>
        </mxCell>
        <mxCell id="FeAPPIAdGxHD5No5LUYg-15" value="&lt;b&gt;&lt;span style=&quot;font-size: 19px&quot;&gt;P&lt;/span&gt;&lt;font style=&quot;font-size: 10px&quot;&gt;2&lt;/font&gt;&lt;/b&gt;" style="text;html=1;strokeColor=none;fillColor=none;align=center;verticalAlign=middle;whiteSpace=wrap;rounded=0;" vertex="1" parent="FeAPPIAdGxHD5No5LUYg-1">
          <mxGeometry x="230" y="90" width="60" height="30" as="geometry" />
        </mxCell>
        <mxCell id="FeAPPIAdGxHD5No5LUYg-16" value="" style="endArrow=none;html=1;rounded=0;" edge="1" parent="FeAPPIAdGxHD5No5LUYg-1">
          <mxGeometry width="50" height="50" relative="1" as="geometry">
            <mxPoint x="350" y="650" as="sourcePoint" />
            <mxPoint x="350" y="117" as="targetPoint" />
          </mxGeometry>
        </mxCell>
        <mxCell id="FeAPPIAdGxHD5No5LUYg-17" value="" style="endArrow=none;html=1;rounded=0;startArrow=none;" edge="1" source="FeAPPIAdGxHD5No5LUYg-18" parent="FeAPPIAdGxHD5No5LUYg-1">
          <mxGeometry width="50" height="50" relative="1" as="geometry">
            <mxPoint x="370" y="457" as="sourcePoint" />
            <mxPoint x="370" y="157" as="targetPoint" />
          </mxGeometry>
        </mxCell>
        <mxCell id="FeAPPIAdGxHD5No5LUYg-18" value="" style="verticalLabelPosition=bottom;shadow=0;dashed=0;align=center;html=1;verticalAlign=top;shape=mxgraph.electrical.logic_gates.inverting_contact;" vertex="1" parent="FeAPPIAdGxHD5No5LUYg-1">
          <mxGeometry x="365" y="155" width="10" height="10" as="geometry" />
        </mxCell>
        <mxCell id="FeAPPIAdGxHD5No5LUYg-19" value="" style="endArrow=none;html=1;rounded=0;" edge="1" target="FeAPPIAdGxHD5No5LUYg-18" parent="FeAPPIAdGxHD5No5LUYg-1">
          <mxGeometry width="50" height="50" relative="1" as="geometry">
            <mxPoint x="370" y="650" as="sourcePoint" />
            <mxPoint x="370" y="157" as="targetPoint" />
          </mxGeometry>
        </mxCell>
        <mxCell id="FeAPPIAdGxHD5No5LUYg-20" value="" style="endArrow=classic;html=1;rounded=0;entryX=0.1;entryY=0.5;entryDx=0;entryDy=0;entryPerimeter=0;" edge="1" parent="FeAPPIAdGxHD5No5LUYg-1">
          <mxGeometry width="50" height="50" relative="1" as="geometry">
            <mxPoint x="370" y="137" as="sourcePoint" />
            <mxPoint x="370" y="157" as="targetPoint" />
          </mxGeometry>
        </mxCell>
        <mxCell id="FeAPPIAdGxHD5No5LUYg-21" value="" style="endArrow=none;html=1;rounded=0;" edge="1" parent="FeAPPIAdGxHD5No5LUYg-1">
          <mxGeometry width="50" height="50" relative="1" as="geometry">
            <mxPoint x="350" y="137" as="sourcePoint" />
            <mxPoint x="370" y="137" as="targetPoint" />
          </mxGeometry>
        </mxCell>
        <mxCell id="FeAPPIAdGxHD5No5LUYg-22" value="&lt;b&gt;&lt;font style=&quot;font-size: 19px&quot;&gt;P&lt;/font&gt;&lt;font style=&quot;font-size: 10px&quot;&gt;3&lt;/font&gt;&lt;/b&gt;" style="text;html=1;strokeColor=none;fillColor=none;align=center;verticalAlign=middle;whiteSpace=wrap;rounded=0;" vertex="1" parent="FeAPPIAdGxHD5No5LUYg-1">
          <mxGeometry x="320" y="90" width="60" height="30" as="geometry" />
        </mxCell>
        <mxCell id="FeAPPIAdGxHD5No5LUYg-30" style="edgeStyle=orthogonalEdgeStyle;rounded=0;orthogonalLoop=1;jettySize=auto;html=1;exitX=1;exitY=0.5;exitDx=0;exitDy=0;exitPerimeter=0;entryX=0;entryY=0.25;entryDx=0;entryDy=0;entryPerimeter=0;fontSize=10;endArrow=none;endFill=0;" edge="1" parent="FeAPPIAdGxHD5No5LUYg-1" source="FeAPPIAdGxHD5No5LUYg-23" target="FeAPPIAdGxHD5No5LUYg-28">
          <mxGeometry relative="1" as="geometry">
            <Array as="points">
              <mxPoint x="520" y="210" />
            </Array>
          </mxGeometry>
        </mxCell>
        <mxCell id="FeAPPIAdGxHD5No5LUYg-33" style="edgeStyle=orthogonalEdgeStyle;rounded=0;orthogonalLoop=1;jettySize=auto;html=1;exitX=0;exitY=0.75;exitDx=0;exitDy=0;exitPerimeter=0;fontSize=10;endArrow=none;endFill=0;" edge="1" parent="FeAPPIAdGxHD5No5LUYg-1" source="FeAPPIAdGxHD5No5LUYg-23">
          <mxGeometry relative="1" as="geometry">
            <mxPoint x="350" y="225" as="targetPoint" />
          </mxGeometry>
        </mxCell>
        <mxCell id="FeAPPIAdGxHD5No5LUYg-34" style="edgeStyle=orthogonalEdgeStyle;rounded=0;orthogonalLoop=1;jettySize=auto;html=1;exitX=0;exitY=0.25;exitDx=0;exitDy=0;exitPerimeter=0;fontSize=10;endArrow=none;endFill=0;" edge="1" parent="FeAPPIAdGxHD5No5LUYg-1" source="FeAPPIAdGxHD5No5LUYg-23">
          <mxGeometry relative="1" as="geometry">
            <mxPoint x="260" y="195" as="targetPoint" />
          </mxGeometry>
        </mxCell>
        <mxCell id="FeAPPIAdGxHD5No5LUYg-23" value="" style="verticalLabelPosition=bottom;shadow=0;dashed=0;align=center;html=1;verticalAlign=top;shape=mxgraph.electrical.logic_gates.logic_gate;operation=and;fontSize=10;" vertex="1" parent="FeAPPIAdGxHD5No5LUYg-1">
          <mxGeometry x="390" y="180" width="100" height="60" as="geometry" />
        </mxCell>
        <mxCell id="FeAPPIAdGxHD5No5LUYg-32" style="edgeStyle=orthogonalEdgeStyle;rounded=0;orthogonalLoop=1;jettySize=auto;html=1;exitX=1;exitY=0.5;exitDx=0;exitDy=0;exitPerimeter=0;entryX=0.2;entryY=0.5;entryDx=0;entryDy=0;entryPerimeter=0;fontSize=10;endArrow=none;endFill=0;" edge="1" parent="FeAPPIAdGxHD5No5LUYg-1" source="FeAPPIAdGxHD5No5LUYg-24" target="FeAPPIAdGxHD5No5LUYg-28">
          <mxGeometry relative="1" as="geometry" />
        </mxCell>
        <mxCell id="FeAPPIAdGxHD5No5LUYg-35" style="edgeStyle=orthogonalEdgeStyle;rounded=0;orthogonalLoop=1;jettySize=auto;html=1;exitX=0;exitY=0.25;exitDx=0;exitDy=0;exitPerimeter=0;fontSize=10;endArrow=none;endFill=0;" edge="1" parent="FeAPPIAdGxHD5No5LUYg-1" source="FeAPPIAdGxHD5No5LUYg-24">
          <mxGeometry relative="1" as="geometry">
            <mxPoint x="170" y="275" as="targetPoint" />
          </mxGeometry>
        </mxCell>
        <mxCell id="FeAPPIAdGxHD5No5LUYg-36" style="edgeStyle=orthogonalEdgeStyle;rounded=0;orthogonalLoop=1;jettySize=auto;html=1;exitX=0;exitY=0.75;exitDx=0;exitDy=0;exitPerimeter=0;fontSize=10;endArrow=none;endFill=0;" edge="1" parent="FeAPPIAdGxHD5No5LUYg-1" source="FeAPPIAdGxHD5No5LUYg-24">
          <mxGeometry relative="1" as="geometry">
            <mxPoint x="260" y="305" as="targetPoint" />
          </mxGeometry>
        </mxCell>
        <mxCell id="FeAPPIAdGxHD5No5LUYg-24" value="" style="verticalLabelPosition=bottom;shadow=0;dashed=0;align=center;html=1;verticalAlign=top;shape=mxgraph.electrical.logic_gates.logic_gate;operation=and;fontSize=10;" vertex="1" parent="FeAPPIAdGxHD5No5LUYg-1">
          <mxGeometry x="390" y="260" width="100" height="60" as="geometry" />
        </mxCell>
        <mxCell id="FeAPPIAdGxHD5No5LUYg-37" style="edgeStyle=orthogonalEdgeStyle;rounded=0;orthogonalLoop=1;jettySize=auto;html=1;exitX=0;exitY=0.25;exitDx=0;exitDy=0;exitPerimeter=0;fontSize=10;endArrow=none;endFill=0;" edge="1" parent="FeAPPIAdGxHD5No5LUYg-1" source="FeAPPIAdGxHD5No5LUYg-25">
          <mxGeometry relative="1" as="geometry">
            <mxPoint x="170" y="355" as="targetPoint" />
          </mxGeometry>
        </mxCell>
        <mxCell id="FeAPPIAdGxHD5No5LUYg-38" style="edgeStyle=orthogonalEdgeStyle;rounded=0;orthogonalLoop=1;jettySize=auto;html=1;exitX=0;exitY=0.75;exitDx=0;exitDy=0;exitPerimeter=0;fontSize=10;endArrow=none;endFill=0;" edge="1" parent="FeAPPIAdGxHD5No5LUYg-1" source="FeAPPIAdGxHD5No5LUYg-25">
          <mxGeometry relative="1" as="geometry">
            <mxPoint x="350" y="385" as="targetPoint" />
          </mxGeometry>
        </mxCell>
        <mxCell id="FeAPPIAdGxHD5No5LUYg-25" value="" style="verticalLabelPosition=bottom;shadow=0;dashed=0;align=center;html=1;verticalAlign=top;shape=mxgraph.electrical.logic_gates.logic_gate;operation=and;fontSize=10;" vertex="1" parent="FeAPPIAdGxHD5No5LUYg-1">
          <mxGeometry x="390" y="340" width="100" height="60" as="geometry" />
        </mxCell>
        <mxCell id="FeAPPIAdGxHD5No5LUYg-29" style="edgeStyle=orthogonalEdgeStyle;rounded=0;orthogonalLoop=1;jettySize=auto;html=1;exitX=1;exitY=0.5;exitDx=0;exitDy=0;exitPerimeter=0;entryX=0;entryY=0.25;entryDx=0;entryDy=0;entryPerimeter=0;fontSize=10;endArrow=none;endFill=0;" edge="1" parent="FeAPPIAdGxHD5No5LUYg-1" source="FeAPPIAdGxHD5No5LUYg-26" target="FeAPPIAdGxHD5No5LUYg-27">
          <mxGeometry relative="1" as="geometry" />
        </mxCell>
        <mxCell id="FeAPPIAdGxHD5No5LUYg-39" style="edgeStyle=orthogonalEdgeStyle;rounded=0;orthogonalLoop=1;jettySize=auto;html=1;exitX=0;exitY=0.25;exitDx=0;exitDy=0;exitPerimeter=0;fontSize=10;endArrow=none;endFill=0;" edge="1" parent="FeAPPIAdGxHD5No5LUYg-1" source="FeAPPIAdGxHD5No5LUYg-26">
          <mxGeometry relative="1" as="geometry">
            <mxPoint x="170" y="435" as="targetPoint" />
          </mxGeometry>
        </mxCell>
        <mxCell id="FeAPPIAdGxHD5No5LUYg-40" style="edgeStyle=orthogonalEdgeStyle;rounded=0;orthogonalLoop=1;jettySize=auto;html=1;exitX=0;exitY=0.75;exitDx=0;exitDy=0;exitPerimeter=0;fontSize=10;endArrow=none;endFill=0;" edge="1" parent="FeAPPIAdGxHD5No5LUYg-1" source="FeAPPIAdGxHD5No5LUYg-26">
          <mxGeometry relative="1" as="geometry">
            <mxPoint x="260" y="465" as="targetPoint" />
          </mxGeometry>
        </mxCell>
        <mxCell id="FeAPPIAdGxHD5No5LUYg-26" value="" style="verticalLabelPosition=bottom;shadow=0;dashed=0;align=center;html=1;verticalAlign=top;shape=mxgraph.electrical.logic_gates.logic_gate;operation=xor;fontSize=10;" vertex="1" parent="FeAPPIAdGxHD5No5LUYg-1">
          <mxGeometry x="390" y="420" width="100" height="60" as="geometry" />
        </mxCell>
        <mxCell id="FeAPPIAdGxHD5No5LUYg-41" style="edgeStyle=orthogonalEdgeStyle;rounded=0;orthogonalLoop=1;jettySize=auto;html=1;exitX=0;exitY=0.75;exitDx=0;exitDy=0;exitPerimeter=0;fontSize=10;endArrow=none;endFill=0;" edge="1" parent="FeAPPIAdGxHD5No5LUYg-1" source="FeAPPIAdGxHD5No5LUYg-27">
          <mxGeometry relative="1" as="geometry">
            <mxPoint x="370" y="515" as="targetPoint" />
          </mxGeometry>
        </mxCell>
        <mxCell id="FeAPPIAdGxHD5No5LUYg-27" value="" style="verticalLabelPosition=bottom;shadow=0;dashed=0;align=center;html=1;verticalAlign=top;shape=mxgraph.electrical.logic_gates.logic_gate;operation=xor;fontSize=10;" vertex="1" parent="FeAPPIAdGxHD5No5LUYg-1">
          <mxGeometry x="520" y="470" width="100" height="60" as="geometry" />
        </mxCell>
        <mxCell id="FeAPPIAdGxHD5No5LUYg-31" style="edgeStyle=orthogonalEdgeStyle;rounded=0;orthogonalLoop=1;jettySize=auto;html=1;exitX=0;exitY=0.75;exitDx=0;exitDy=0;exitPerimeter=0;entryX=1;entryY=0.5;entryDx=0;entryDy=0;entryPerimeter=0;fontSize=10;endArrow=none;endFill=0;" edge="1" parent="FeAPPIAdGxHD5No5LUYg-1" source="FeAPPIAdGxHD5No5LUYg-28" target="FeAPPIAdGxHD5No5LUYg-25">
          <mxGeometry relative="1" as="geometry">
            <Array as="points">
              <mxPoint x="520" y="370" />
            </Array>
          </mxGeometry>
        </mxCell>
        <mxCell id="FeAPPIAdGxHD5No5LUYg-28" value="" style="verticalLabelPosition=bottom;shadow=0;dashed=0;align=center;html=1;verticalAlign=top;shape=mxgraph.electrical.logic_gates.logic_gate;operation=or;fontSize=10;" vertex="1" parent="FeAPPIAdGxHD5No5LUYg-1">
          <mxGeometry x="520" y="260" width="100" height="60" as="geometry" />
        </mxCell>
        <mxCell id="FeAPPIAdGxHD5No5LUYg-42" value="EV1" style="rounded=1;whiteSpace=wrap;html=1;align=center;fontSize=15;" vertex="1" parent="FeAPPIAdGxHD5No5LUYg-1">
          <mxGeometry x="620" y="269" width="45" height="43" as="geometry" />
        </mxCell>
        <mxCell id="FeAPPIAdGxHD5No5LUYg-43" value="EV2" style="rounded=1;whiteSpace=wrap;html=1;align=center;fontSize=15;" vertex="1" parent="FeAPPIAdGxHD5No5LUYg-1">
          <mxGeometry x="620" y="478.5" width="45" height="43" as="geometry" />
        </mxCell>
      </root>
    </mxGraphModel>
  </diagram>
  <diagram id="x4yf_c0pAw7mD5uL5pXT" name="G. Tri d&#39;ardoises">
    <mxGraphModel dx="1597" dy="835" grid="1" gridSize="10" guides="1" tooltips="1" connect="1" arrows="1" fold="1" page="1" pageScale="1" pageWidth="1169" pageHeight="827" math="0" shadow="0">
      <root>
        <mxCell id="IDfedCf18PUgvVr4953q-0" />
        <mxCell id="IDfedCf18PUgvVr4953q-1" parent="IDfedCf18PUgvVr4953q-0" />
        <mxCell id="IDfedCf18PUgvVr4953q-2" value="" style="endArrow=none;html=1;rounded=0;fontSize=10;" edge="1" parent="IDfedCf18PUgvVr4953q-1">
          <mxGeometry width="50" height="50" relative="1" as="geometry">
            <mxPoint x="160" y="906.4000244140625" as="sourcePoint" />
            <mxPoint x="160" y="107" as="targetPoint" />
          </mxGeometry>
        </mxCell>
        <mxCell id="IDfedCf18PUgvVr4953q-3" value="" style="endArrow=none;html=1;rounded=0;startArrow=none;fontSize=10;" edge="1" source="IDfedCf18PUgvVr4953q-4" parent="IDfedCf18PUgvVr4953q-1">
          <mxGeometry width="50" height="50" relative="1" as="geometry">
            <mxPoint x="180" y="447" as="sourcePoint" />
            <mxPoint x="180" y="147" as="targetPoint" />
          </mxGeometry>
        </mxCell>
        <mxCell id="IDfedCf18PUgvVr4953q-4" value="" style="verticalLabelPosition=bottom;shadow=0;dashed=0;align=center;html=1;verticalAlign=top;shape=mxgraph.electrical.logic_gates.inverting_contact;fontSize=10;" vertex="1" parent="IDfedCf18PUgvVr4953q-1">
          <mxGeometry x="175" y="145" width="10" height="10" as="geometry" />
        </mxCell>
        <mxCell id="IDfedCf18PUgvVr4953q-5" value="" style="endArrow=none;html=1;rounded=0;fontSize=10;" edge="1" target="IDfedCf18PUgvVr4953q-4" parent="IDfedCf18PUgvVr4953q-1">
          <mxGeometry width="50" height="50" relative="1" as="geometry">
            <mxPoint x="180" y="910" as="sourcePoint" />
            <mxPoint x="180" y="147" as="targetPoint" />
          </mxGeometry>
        </mxCell>
        <mxCell id="IDfedCf18PUgvVr4953q-6" value="" style="endArrow=classic;html=1;rounded=0;entryX=0.1;entryY=0.5;entryDx=0;entryDy=0;entryPerimeter=0;fontSize=10;" edge="1" parent="IDfedCf18PUgvVr4953q-1">
          <mxGeometry width="50" height="50" relative="1" as="geometry">
            <mxPoint x="180" y="127" as="sourcePoint" />
            <mxPoint x="180" y="147" as="targetPoint" />
          </mxGeometry>
        </mxCell>
        <mxCell id="IDfedCf18PUgvVr4953q-7" value="" style="endArrow=none;html=1;rounded=0;fontSize=10;" edge="1" parent="IDfedCf18PUgvVr4953q-1">
          <mxGeometry width="50" height="50" relative="1" as="geometry">
            <mxPoint x="160" y="127" as="sourcePoint" />
            <mxPoint x="180" y="127" as="targetPoint" />
          </mxGeometry>
        </mxCell>
        <mxCell id="IDfedCf18PUgvVr4953q-8" value="&lt;b&gt;&lt;font style=&quot;font-size: 19px&quot;&gt;A&lt;/font&gt;&lt;/b&gt;" style="text;html=1;strokeColor=none;fillColor=none;align=center;verticalAlign=middle;whiteSpace=wrap;rounded=0;fontSize=10;" vertex="1" parent="IDfedCf18PUgvVr4953q-1">
          <mxGeometry x="130" y="80" width="60" height="30" as="geometry" />
        </mxCell>
        <mxCell id="IDfedCf18PUgvVr4953q-9" value="" style="endArrow=none;html=1;rounded=0;fontSize=10;" edge="1" parent="IDfedCf18PUgvVr4953q-1">
          <mxGeometry width="50" height="50" relative="1" as="geometry">
            <mxPoint x="250" y="910" as="sourcePoint" />
            <mxPoint x="250" y="107" as="targetPoint" />
          </mxGeometry>
        </mxCell>
        <mxCell id="IDfedCf18PUgvVr4953q-10" value="" style="endArrow=none;html=1;rounded=0;startArrow=none;fontSize=10;" edge="1" source="IDfedCf18PUgvVr4953q-11" parent="IDfedCf18PUgvVr4953q-1">
          <mxGeometry width="50" height="50" relative="1" as="geometry">
            <mxPoint x="270" y="447" as="sourcePoint" />
            <mxPoint x="270" y="147" as="targetPoint" />
          </mxGeometry>
        </mxCell>
        <mxCell id="IDfedCf18PUgvVr4953q-11" value="" style="verticalLabelPosition=bottom;shadow=0;dashed=0;align=center;html=1;verticalAlign=top;shape=mxgraph.electrical.logic_gates.inverting_contact;fontSize=10;" vertex="1" parent="IDfedCf18PUgvVr4953q-1">
          <mxGeometry x="265" y="145" width="10" height="10" as="geometry" />
        </mxCell>
        <mxCell id="IDfedCf18PUgvVr4953q-12" value="" style="endArrow=none;html=1;rounded=0;fontSize=10;" edge="1" target="IDfedCf18PUgvVr4953q-11" parent="IDfedCf18PUgvVr4953q-1">
          <mxGeometry width="50" height="50" relative="1" as="geometry">
            <mxPoint x="270" y="910.7999877929688" as="sourcePoint" />
            <mxPoint x="270" y="147" as="targetPoint" />
          </mxGeometry>
        </mxCell>
        <mxCell id="IDfedCf18PUgvVr4953q-13" value="" style="endArrow=classic;html=1;rounded=0;entryX=0.1;entryY=0.5;entryDx=0;entryDy=0;entryPerimeter=0;fontSize=10;" edge="1" parent="IDfedCf18PUgvVr4953q-1">
          <mxGeometry width="50" height="50" relative="1" as="geometry">
            <mxPoint x="270" y="127" as="sourcePoint" />
            <mxPoint x="270" y="147" as="targetPoint" />
          </mxGeometry>
        </mxCell>
        <mxCell id="IDfedCf18PUgvVr4953q-14" value="" style="endArrow=none;html=1;rounded=0;fontSize=10;" edge="1" parent="IDfedCf18PUgvVr4953q-1">
          <mxGeometry width="50" height="50" relative="1" as="geometry">
            <mxPoint x="250" y="127" as="sourcePoint" />
            <mxPoint x="270" y="127" as="targetPoint" />
          </mxGeometry>
        </mxCell>
        <mxCell id="IDfedCf18PUgvVr4953q-15" value="&lt;b&gt;&lt;font style=&quot;font-size: 19px&quot;&gt;B&lt;/font&gt;&lt;/b&gt;" style="text;html=1;strokeColor=none;fillColor=none;align=center;verticalAlign=middle;whiteSpace=wrap;rounded=0;fontSize=10;" vertex="1" parent="IDfedCf18PUgvVr4953q-1">
          <mxGeometry x="220" y="80" width="60" height="30" as="geometry" />
        </mxCell>
        <mxCell id="IDfedCf18PUgvVr4953q-23" value="" style="endArrow=none;html=1;rounded=0;fontSize=10;" edge="1" parent="IDfedCf18PUgvVr4953q-1">
          <mxGeometry width="50" height="50" relative="1" as="geometry">
            <mxPoint x="430" y="900" as="sourcePoint" />
            <mxPoint x="430" y="107" as="targetPoint" />
          </mxGeometry>
        </mxCell>
        <mxCell id="IDfedCf18PUgvVr4953q-24" value="" style="endArrow=none;html=1;rounded=0;startArrow=none;fontSize=10;" edge="1" source="IDfedCf18PUgvVr4953q-25" parent="IDfedCf18PUgvVr4953q-1">
          <mxGeometry width="50" height="50" relative="1" as="geometry">
            <mxPoint x="450" y="447" as="sourcePoint" />
            <mxPoint x="450" y="147" as="targetPoint" />
          </mxGeometry>
        </mxCell>
        <mxCell id="IDfedCf18PUgvVr4953q-25" value="" style="verticalLabelPosition=bottom;shadow=0;dashed=0;align=center;html=1;verticalAlign=top;shape=mxgraph.electrical.logic_gates.inverting_contact;fontSize=10;" vertex="1" parent="IDfedCf18PUgvVr4953q-1">
          <mxGeometry x="445" y="145" width="10" height="10" as="geometry" />
        </mxCell>
        <mxCell id="IDfedCf18PUgvVr4953q-26" value="" style="endArrow=none;html=1;rounded=0;fontSize=10;" edge="1" target="IDfedCf18PUgvVr4953q-25" parent="IDfedCf18PUgvVr4953q-1">
          <mxGeometry width="50" height="50" relative="1" as="geometry">
            <mxPoint x="450" y="901.60009765625" as="sourcePoint" />
            <mxPoint x="450" y="147" as="targetPoint" />
          </mxGeometry>
        </mxCell>
        <mxCell id="IDfedCf18PUgvVr4953q-27" value="" style="endArrow=classic;html=1;rounded=0;entryX=0.1;entryY=0.5;entryDx=0;entryDy=0;entryPerimeter=0;fontSize=10;" edge="1" parent="IDfedCf18PUgvVr4953q-1">
          <mxGeometry width="50" height="50" relative="1" as="geometry">
            <mxPoint x="450" y="127" as="sourcePoint" />
            <mxPoint x="450" y="147" as="targetPoint" />
          </mxGeometry>
        </mxCell>
        <mxCell id="IDfedCf18PUgvVr4953q-28" value="" style="endArrow=none;html=1;rounded=0;fontSize=10;" edge="1" parent="IDfedCf18PUgvVr4953q-1">
          <mxGeometry width="50" height="50" relative="1" as="geometry">
            <mxPoint x="430" y="127" as="sourcePoint" />
            <mxPoint x="450" y="127" as="targetPoint" />
          </mxGeometry>
        </mxCell>
        <mxCell id="IDfedCf18PUgvVr4953q-29" value="&lt;b&gt;&lt;font style=&quot;font-size: 19px&quot;&gt;D&lt;/font&gt;&lt;/b&gt;" style="text;html=1;strokeColor=none;fillColor=none;align=center;verticalAlign=middle;whiteSpace=wrap;rounded=0;fontSize=10;" vertex="1" parent="IDfedCf18PUgvVr4953q-1">
          <mxGeometry x="400" y="80" width="60" height="30" as="geometry" />
        </mxCell>
        <mxCell id="IDfedCf18PUgvVr4953q-36" style="edgeStyle=orthogonalEdgeStyle;rounded=0;orthogonalLoop=1;jettySize=auto;html=1;exitX=1;exitY=0.5;exitDx=0;exitDy=0;exitPerimeter=0;entryX=0;entryY=0.5;entryDx=0;entryDy=0;fontSize=10;endArrow=none;endFill=0;" edge="1" parent="IDfedCf18PUgvVr4953q-1" source="IDfedCf18PUgvVr4953q-30" target="IDfedCf18PUgvVr4953q-35">
          <mxGeometry relative="1" as="geometry">
            <Array as="points">
              <mxPoint x="720" y="190" />
            </Array>
          </mxGeometry>
        </mxCell>
        <mxCell id="IDfedCf18PUgvVr4953q-62" style="edgeStyle=orthogonalEdgeStyle;rounded=0;orthogonalLoop=1;jettySize=auto;html=1;exitX=0;exitY=0.25;exitDx=0;exitDy=0;exitPerimeter=0;fontSize=10;endArrow=none;endFill=0;" edge="1" parent="IDfedCf18PUgvVr4953q-1" source="IDfedCf18PUgvVr4953q-30">
          <mxGeometry relative="1" as="geometry">
            <mxPoint x="160" y="185" as="targetPoint" />
            <Array as="points">
              <mxPoint x="160" y="170" />
            </Array>
          </mxGeometry>
        </mxCell>
        <mxCell id="IDfedCf18PUgvVr4953q-63" style="edgeStyle=orthogonalEdgeStyle;rounded=0;orthogonalLoop=1;jettySize=auto;html=1;exitX=0;exitY=0.75;exitDx=0;exitDy=0;exitPerimeter=0;fontSize=10;endArrow=none;endFill=0;" edge="1" parent="IDfedCf18PUgvVr4953q-1" source="IDfedCf18PUgvVr4953q-30">
          <mxGeometry relative="1" as="geometry">
            <mxPoint x="430" y="210" as="targetPoint" />
          </mxGeometry>
        </mxCell>
        <mxCell id="IDfedCf18PUgvVr4953q-30" value="" style="verticalLabelPosition=bottom;shadow=0;dashed=0;align=center;html=1;verticalAlign=top;shape=mxgraph.electrical.logic_gates.logic_gate;operation=and;fontSize=10;" vertex="1" parent="IDfedCf18PUgvVr4953q-1">
          <mxGeometry x="470" y="150" width="100" height="80" as="geometry" />
        </mxCell>
        <mxCell id="IDfedCf18PUgvVr4953q-39" style="edgeStyle=orthogonalEdgeStyle;rounded=0;orthogonalLoop=1;jettySize=auto;html=1;exitX=1;exitY=0.5;exitDx=0;exitDy=0;exitPerimeter=0;entryX=0;entryY=0.25;entryDx=0;entryDy=0;entryPerimeter=0;fontSize=10;endArrow=none;endFill=0;" edge="1" parent="IDfedCf18PUgvVr4953q-1" source="IDfedCf18PUgvVr4953q-31" target="IDfedCf18PUgvVr4953q-38">
          <mxGeometry relative="1" as="geometry">
            <Array as="points">
              <mxPoint x="620" y="280" />
            </Array>
          </mxGeometry>
        </mxCell>
        <mxCell id="IDfedCf18PUgvVr4953q-66" style="edgeStyle=orthogonalEdgeStyle;rounded=0;orthogonalLoop=1;jettySize=auto;html=1;exitX=0;exitY=0.75;exitDx=0;exitDy=0;exitPerimeter=0;fontSize=10;endArrow=none;endFill=0;" edge="1" parent="IDfedCf18PUgvVr4953q-1" source="IDfedCf18PUgvVr4953q-31">
          <mxGeometry relative="1" as="geometry">
            <mxPoint x="450" y="295" as="targetPoint" />
          </mxGeometry>
        </mxCell>
        <mxCell id="IDfedCf18PUgvVr4953q-67" style="edgeStyle=orthogonalEdgeStyle;rounded=0;orthogonalLoop=1;jettySize=auto;html=1;exitX=0;exitY=0.25;exitDx=0;exitDy=0;exitPerimeter=0;fontSize=10;endArrow=none;endFill=0;" edge="1" parent="IDfedCf18PUgvVr4953q-1" source="IDfedCf18PUgvVr4953q-31">
          <mxGeometry relative="1" as="geometry">
            <mxPoint x="180" y="265" as="targetPoint" />
          </mxGeometry>
        </mxCell>
        <mxCell id="IDfedCf18PUgvVr4953q-31" value="" style="verticalLabelPosition=bottom;shadow=0;dashed=0;align=center;html=1;verticalAlign=top;shape=mxgraph.electrical.logic_gates.logic_gate;operation=and;fontSize=10;" vertex="1" parent="IDfedCf18PUgvVr4953q-1">
          <mxGeometry x="470" y="250" width="100" height="60" as="geometry" />
        </mxCell>
        <mxCell id="IDfedCf18PUgvVr4953q-41" style="edgeStyle=orthogonalEdgeStyle;rounded=0;orthogonalLoop=1;jettySize=auto;html=1;exitX=1;exitY=0.5;exitDx=0;exitDy=0;exitPerimeter=0;entryX=0.244;entryY=0.39;entryDx=0;entryDy=0;entryPerimeter=0;fontSize=10;endArrow=none;endFill=0;" edge="1" parent="IDfedCf18PUgvVr4953q-1" source="IDfedCf18PUgvVr4953q-32" target="IDfedCf18PUgvVr4953q-38">
          <mxGeometry relative="1" as="geometry" />
        </mxCell>
        <mxCell id="IDfedCf18PUgvVr4953q-68" style="edgeStyle=orthogonalEdgeStyle;rounded=0;orthogonalLoop=1;jettySize=auto;html=1;exitX=0;exitY=0.25;exitDx=0;exitDy=0;exitPerimeter=0;fontSize=10;endArrow=none;endFill=0;" edge="1" parent="IDfedCf18PUgvVr4953q-1" source="IDfedCf18PUgvVr4953q-32">
          <mxGeometry relative="1" as="geometry">
            <mxPoint x="360" y="345" as="targetPoint" />
          </mxGeometry>
        </mxCell>
        <mxCell id="IDfedCf18PUgvVr4953q-69" style="edgeStyle=orthogonalEdgeStyle;rounded=0;orthogonalLoop=1;jettySize=auto;html=1;exitX=0;exitY=0.75;exitDx=0;exitDy=0;exitPerimeter=0;fontSize=10;endArrow=none;endFill=0;" edge="1" parent="IDfedCf18PUgvVr4953q-1" source="IDfedCf18PUgvVr4953q-32">
          <mxGeometry relative="1" as="geometry">
            <mxPoint x="450" y="375" as="targetPoint" />
          </mxGeometry>
        </mxCell>
        <mxCell id="IDfedCf18PUgvVr4953q-32" value="" style="verticalLabelPosition=bottom;shadow=0;dashed=0;align=center;html=1;verticalAlign=top;shape=mxgraph.electrical.logic_gates.logic_gate;operation=and;fontSize=10;" vertex="1" parent="IDfedCf18PUgvVr4953q-1">
          <mxGeometry x="470" y="330" width="100" height="60" as="geometry" />
        </mxCell>
        <mxCell id="IDfedCf18PUgvVr4953q-42" style="edgeStyle=orthogonalEdgeStyle;rounded=0;orthogonalLoop=1;jettySize=auto;html=1;exitX=1;exitY=0.5;exitDx=0;exitDy=0;exitPerimeter=0;entryX=0.22;entryY=0.603;entryDx=0;entryDy=0;entryPerimeter=0;fontSize=10;endArrow=none;endFill=0;" edge="1" parent="IDfedCf18PUgvVr4953q-1" source="IDfedCf18PUgvVr4953q-33" target="IDfedCf18PUgvVr4953q-38">
          <mxGeometry relative="1" as="geometry" />
        </mxCell>
        <mxCell id="IDfedCf18PUgvVr4953q-70" style="edgeStyle=orthogonalEdgeStyle;rounded=0;orthogonalLoop=1;jettySize=auto;html=1;exitX=0;exitY=0.25;exitDx=0;exitDy=0;exitPerimeter=0;fontSize=10;endArrow=none;endFill=0;" edge="1" parent="IDfedCf18PUgvVr4953q-1" source="IDfedCf18PUgvVr4953q-33">
          <mxGeometry relative="1" as="geometry">
            <mxPoint x="180" y="425" as="targetPoint" />
          </mxGeometry>
        </mxCell>
        <mxCell id="IDfedCf18PUgvVr4953q-71" style="edgeStyle=orthogonalEdgeStyle;rounded=0;orthogonalLoop=1;jettySize=auto;html=1;exitX=0;exitY=0.75;exitDx=0;exitDy=0;exitPerimeter=0;fontSize=10;endArrow=none;endFill=0;" edge="1" parent="IDfedCf18PUgvVr4953q-1" source="IDfedCf18PUgvVr4953q-33">
          <mxGeometry relative="1" as="geometry">
            <mxPoint x="270" y="455" as="targetPoint" />
          </mxGeometry>
        </mxCell>
        <mxCell id="IDfedCf18PUgvVr4953q-33" value="" style="verticalLabelPosition=bottom;shadow=0;dashed=0;align=center;html=1;verticalAlign=top;shape=mxgraph.electrical.logic_gates.logic_gate;operation=and;fontSize=10;" vertex="1" parent="IDfedCf18PUgvVr4953q-1">
          <mxGeometry x="470" y="410" width="100" height="60" as="geometry" />
        </mxCell>
        <mxCell id="IDfedCf18PUgvVr4953q-40" style="edgeStyle=orthogonalEdgeStyle;rounded=0;orthogonalLoop=1;jettySize=auto;html=1;exitX=1;exitY=0.5;exitDx=0;exitDy=0;exitPerimeter=0;entryX=0;entryY=0.75;entryDx=0;entryDy=0;entryPerimeter=0;fontSize=10;endArrow=none;endFill=0;" edge="1" parent="IDfedCf18PUgvVr4953q-1" source="IDfedCf18PUgvVr4953q-34" target="IDfedCf18PUgvVr4953q-38">
          <mxGeometry relative="1" as="geometry">
            <Array as="points">
              <mxPoint x="620" y="520" />
            </Array>
          </mxGeometry>
        </mxCell>
        <mxCell id="IDfedCf18PUgvVr4953q-72" style="edgeStyle=orthogonalEdgeStyle;rounded=0;orthogonalLoop=1;jettySize=auto;html=1;exitX=0;exitY=0.25;exitDx=0;exitDy=0;exitPerimeter=0;fontSize=10;endArrow=none;endFill=0;" edge="1" parent="IDfedCf18PUgvVr4953q-1" source="IDfedCf18PUgvVr4953q-34">
          <mxGeometry relative="1" as="geometry">
            <mxPoint x="270" y="505" as="targetPoint" />
          </mxGeometry>
        </mxCell>
        <mxCell id="IDfedCf18PUgvVr4953q-73" style="edgeStyle=orthogonalEdgeStyle;rounded=0;orthogonalLoop=1;jettySize=auto;html=1;exitX=0;exitY=0.75;exitDx=0;exitDy=0;exitPerimeter=0;fontSize=10;endArrow=none;endFill=0;" edge="1" parent="IDfedCf18PUgvVr4953q-1" source="IDfedCf18PUgvVr4953q-34">
          <mxGeometry relative="1" as="geometry">
            <mxPoint x="360" y="535" as="targetPoint" />
          </mxGeometry>
        </mxCell>
        <mxCell id="IDfedCf18PUgvVr4953q-34" value="" style="verticalLabelPosition=bottom;shadow=0;dashed=0;align=center;html=1;verticalAlign=top;shape=mxgraph.electrical.logic_gates.logic_gate;operation=and;fontSize=10;" vertex="1" parent="IDfedCf18PUgvVr4953q-1">
          <mxGeometry x="470" y="490" width="100" height="60" as="geometry" />
        </mxCell>
        <mxCell id="IDfedCf18PUgvVr4953q-35" value="S1" style="rounded=1;whiteSpace=wrap;html=1;align=center;fontSize=15;" vertex="1" parent="IDfedCf18PUgvVr4953q-1">
          <mxGeometry x="720" y="168.5" width="45" height="43" as="geometry" />
        </mxCell>
        <mxCell id="IDfedCf18PUgvVr4953q-38" value="" style="verticalLabelPosition=bottom;shadow=0;dashed=0;align=center;html=1;verticalAlign=top;shape=mxgraph.electrical.logic_gates.logic_gate;operation=or;fontSize=10;" vertex="1" parent="IDfedCf18PUgvVr4953q-1">
          <mxGeometry x="620" y="370" width="100" height="60" as="geometry" />
        </mxCell>
        <mxCell id="IDfedCf18PUgvVr4953q-43" value="S2" style="rounded=1;whiteSpace=wrap;html=1;align=center;fontSize=15;" vertex="1" parent="IDfedCf18PUgvVr4953q-1">
          <mxGeometry x="720" y="379" width="45" height="43" as="geometry" />
        </mxCell>
        <mxCell id="IDfedCf18PUgvVr4953q-49" style="edgeStyle=orthogonalEdgeStyle;rounded=0;orthogonalLoop=1;jettySize=auto;html=1;exitX=1;exitY=0.5;exitDx=0;exitDy=0;exitPerimeter=0;entryX=0;entryY=0.25;entryDx=0;entryDy=0;entryPerimeter=0;fontSize=10;endArrow=none;endFill=0;" edge="1" parent="IDfedCf18PUgvVr4953q-1" target="IDfedCf18PUgvVr4953q-48">
          <mxGeometry relative="1" as="geometry">
            <mxPoint x="570" y="600" as="sourcePoint" />
            <Array as="points">
              <mxPoint x="620" y="600" />
            </Array>
          </mxGeometry>
        </mxCell>
        <mxCell id="IDfedCf18PUgvVr4953q-50" style="edgeStyle=orthogonalEdgeStyle;rounded=0;orthogonalLoop=1;jettySize=auto;html=1;exitX=1;exitY=0.5;exitDx=0;exitDy=0;exitPerimeter=0;entryX=0;entryY=0.75;entryDx=0;entryDy=0;entryPerimeter=0;fontSize=10;endArrow=none;endFill=0;" edge="1" parent="IDfedCf18PUgvVr4953q-1" target="IDfedCf18PUgvVr4953q-48">
          <mxGeometry relative="1" as="geometry">
            <mxPoint x="570" y="840" as="sourcePoint" />
            <Array as="points">
              <mxPoint x="620" y="840" />
            </Array>
          </mxGeometry>
        </mxCell>
        <mxCell id="IDfedCf18PUgvVr4953q-48" value="" style="verticalLabelPosition=bottom;shadow=0;dashed=0;align=center;html=1;verticalAlign=top;shape=mxgraph.electrical.logic_gates.logic_gate;operation=or;fontSize=10;" vertex="1" parent="IDfedCf18PUgvVr4953q-1">
          <mxGeometry x="620" y="690" width="100" height="60" as="geometry" />
        </mxCell>
        <mxCell id="IDfedCf18PUgvVr4953q-51" value="S3" style="rounded=1;whiteSpace=wrap;html=1;align=center;fontSize=15;" vertex="1" parent="IDfedCf18PUgvVr4953q-1">
          <mxGeometry x="720" y="699" width="45" height="43" as="geometry" />
        </mxCell>
        <mxCell id="IDfedCf18PUgvVr4953q-55" value="" style="endArrow=none;html=1;rounded=0;fontSize=10;" edge="1" parent="IDfedCf18PUgvVr4953q-1">
          <mxGeometry width="50" height="50" relative="1" as="geometry">
            <mxPoint x="340" y="914.800048828125" as="sourcePoint" />
            <mxPoint x="340" y="107" as="targetPoint" />
          </mxGeometry>
        </mxCell>
        <mxCell id="IDfedCf18PUgvVr4953q-56" value="" style="endArrow=none;html=1;rounded=0;startArrow=none;fontSize=10;" edge="1" source="IDfedCf18PUgvVr4953q-57" parent="IDfedCf18PUgvVr4953q-1">
          <mxGeometry width="50" height="50" relative="1" as="geometry">
            <mxPoint x="360" y="447" as="sourcePoint" />
            <mxPoint x="360" y="147" as="targetPoint" />
          </mxGeometry>
        </mxCell>
        <mxCell id="IDfedCf18PUgvVr4953q-57" value="" style="verticalLabelPosition=bottom;shadow=0;dashed=0;align=center;html=1;verticalAlign=top;shape=mxgraph.electrical.logic_gates.inverting_contact;fontSize=10;" vertex="1" parent="IDfedCf18PUgvVr4953q-1">
          <mxGeometry x="355" y="145" width="10" height="10" as="geometry" />
        </mxCell>
        <mxCell id="IDfedCf18PUgvVr4953q-58" value="" style="endArrow=none;html=1;rounded=0;fontSize=10;" edge="1" target="IDfedCf18PUgvVr4953q-57" parent="IDfedCf18PUgvVr4953q-1">
          <mxGeometry width="50" height="50" relative="1" as="geometry">
            <mxPoint x="360" y="923.199951171875" as="sourcePoint" />
            <mxPoint x="360" y="147" as="targetPoint" />
          </mxGeometry>
        </mxCell>
        <mxCell id="IDfedCf18PUgvVr4953q-59" value="" style="endArrow=classic;html=1;rounded=0;entryX=0.1;entryY=0.5;entryDx=0;entryDy=0;entryPerimeter=0;fontSize=10;" edge="1" parent="IDfedCf18PUgvVr4953q-1">
          <mxGeometry width="50" height="50" relative="1" as="geometry">
            <mxPoint x="360" y="127" as="sourcePoint" />
            <mxPoint x="360" y="147" as="targetPoint" />
          </mxGeometry>
        </mxCell>
        <mxCell id="IDfedCf18PUgvVr4953q-60" value="" style="endArrow=none;html=1;rounded=0;fontSize=10;" edge="1" parent="IDfedCf18PUgvVr4953q-1">
          <mxGeometry width="50" height="50" relative="1" as="geometry">
            <mxPoint x="340" y="127" as="sourcePoint" />
            <mxPoint x="360" y="127" as="targetPoint" />
          </mxGeometry>
        </mxCell>
        <mxCell id="IDfedCf18PUgvVr4953q-61" value="&lt;b&gt;&lt;font style=&quot;font-size: 19px&quot;&gt;C&lt;/font&gt;&lt;/b&gt;" style="text;html=1;strokeColor=none;fillColor=none;align=center;verticalAlign=middle;whiteSpace=wrap;rounded=0;fontSize=10;" vertex="1" parent="IDfedCf18PUgvVr4953q-1">
          <mxGeometry x="310" y="80" width="60" height="30" as="geometry" />
        </mxCell>
        <mxCell id="IDfedCf18PUgvVr4953q-64" value="" style="endArrow=none;html=1;rounded=0;" edge="1" parent="IDfedCf18PUgvVr4953q-1">
          <mxGeometry width="50" height="50" relative="1" as="geometry">
            <mxPoint x="250" y="184" as="sourcePoint" />
            <mxPoint x="490" y="184" as="targetPoint" />
          </mxGeometry>
        </mxCell>
        <mxCell id="IDfedCf18PUgvVr4953q-65" value="" style="endArrow=none;html=1;rounded=0;" edge="1" parent="IDfedCf18PUgvVr4953q-1">
          <mxGeometry width="50" height="50" relative="1" as="geometry">
            <mxPoint x="340" y="197" as="sourcePoint" />
            <mxPoint x="490" y="196.5" as="targetPoint" />
          </mxGeometry>
        </mxCell>
        <mxCell id="IDfedCf18PUgvVr4953q-89" style="edgeStyle=orthogonalEdgeStyle;rounded=0;orthogonalLoop=1;jettySize=auto;html=1;exitX=0;exitY=0.25;exitDx=0;exitDy=0;exitPerimeter=0;fontSize=10;endArrow=none;endFill=0;" edge="1" parent="IDfedCf18PUgvVr4953q-1" source="IDfedCf18PUgvVr4953q-79">
          <mxGeometry relative="1" as="geometry">
            <mxPoint x="250" y="585" as="targetPoint" />
          </mxGeometry>
        </mxCell>
        <mxCell id="IDfedCf18PUgvVr4953q-90" style="edgeStyle=orthogonalEdgeStyle;rounded=0;orthogonalLoop=1;jettySize=auto;html=1;exitX=0;exitY=0.75;exitDx=0;exitDy=0;exitPerimeter=0;fontSize=10;endArrow=none;endFill=0;" edge="1" parent="IDfedCf18PUgvVr4953q-1" source="IDfedCf18PUgvVr4953q-79">
          <mxGeometry relative="1" as="geometry">
            <mxPoint x="430" y="615" as="targetPoint" />
          </mxGeometry>
        </mxCell>
        <mxCell id="IDfedCf18PUgvVr4953q-79" value="" style="verticalLabelPosition=bottom;shadow=0;dashed=0;align=center;html=1;verticalAlign=top;shape=mxgraph.electrical.logic_gates.logic_gate;operation=and;fontSize=10;" vertex="1" parent="IDfedCf18PUgvVr4953q-1">
          <mxGeometry x="470" y="570" width="100" height="60" as="geometry" />
        </mxCell>
        <mxCell id="IDfedCf18PUgvVr4953q-80" value="" style="endArrow=none;html=1;rounded=0;" edge="1" parent="IDfedCf18PUgvVr4953q-1">
          <mxGeometry width="50" height="50" relative="1" as="geometry">
            <mxPoint x="360" y="600" as="sourcePoint" />
            <mxPoint x="490" y="600" as="targetPoint" />
          </mxGeometry>
        </mxCell>
        <mxCell id="IDfedCf18PUgvVr4953q-88" style="edgeStyle=orthogonalEdgeStyle;rounded=0;orthogonalLoop=1;jettySize=auto;html=1;exitX=1;exitY=0.5;exitDx=0;exitDy=0;exitPerimeter=0;entryX=0.228;entryY=0.417;entryDx=0;entryDy=0;entryPerimeter=0;fontSize=10;endArrow=none;endFill=0;" edge="1" parent="IDfedCf18PUgvVr4953q-1" source="IDfedCf18PUgvVr4953q-81" target="IDfedCf18PUgvVr4953q-48">
          <mxGeometry relative="1" as="geometry" />
        </mxCell>
        <mxCell id="IDfedCf18PUgvVr4953q-91" style="edgeStyle=orthogonalEdgeStyle;rounded=0;orthogonalLoop=1;jettySize=auto;html=1;exitX=0;exitY=0.25;exitDx=0;exitDy=0;exitPerimeter=0;fontSize=10;endArrow=none;endFill=0;" edge="1" parent="IDfedCf18PUgvVr4953q-1" source="IDfedCf18PUgvVr4953q-81">
          <mxGeometry relative="1" as="geometry">
            <mxPoint x="180" y="665" as="targetPoint" />
          </mxGeometry>
        </mxCell>
        <mxCell id="IDfedCf18PUgvVr4953q-92" style="edgeStyle=orthogonalEdgeStyle;rounded=0;orthogonalLoop=1;jettySize=auto;html=1;exitX=0;exitY=0.75;exitDx=0;exitDy=0;exitPerimeter=0;fontSize=10;endArrow=none;endFill=0;" edge="1" parent="IDfedCf18PUgvVr4953q-1" source="IDfedCf18PUgvVr4953q-81">
          <mxGeometry relative="1" as="geometry">
            <mxPoint x="430" y="695" as="targetPoint" />
          </mxGeometry>
        </mxCell>
        <mxCell id="IDfedCf18PUgvVr4953q-81" value="" style="verticalLabelPosition=bottom;shadow=0;dashed=0;align=center;html=1;verticalAlign=top;shape=mxgraph.electrical.logic_gates.logic_gate;operation=and;fontSize=10;" vertex="1" parent="IDfedCf18PUgvVr4953q-1">
          <mxGeometry x="470" y="650" width="100" height="60" as="geometry" />
        </mxCell>
        <mxCell id="IDfedCf18PUgvVr4953q-82" value="" style="endArrow=none;html=1;rounded=0;" edge="1" parent="IDfedCf18PUgvVr4953q-1">
          <mxGeometry width="50" height="50" relative="1" as="geometry">
            <mxPoint x="250" y="680" as="sourcePoint" />
            <mxPoint x="490" y="680" as="targetPoint" />
          </mxGeometry>
        </mxCell>
        <mxCell id="IDfedCf18PUgvVr4953q-87" style="edgeStyle=orthogonalEdgeStyle;rounded=0;orthogonalLoop=1;jettySize=auto;html=1;exitX=1;exitY=0.5;exitDx=0;exitDy=0;exitPerimeter=0;entryX=0.228;entryY=0.603;entryDx=0;entryDy=0;entryPerimeter=0;fontSize=10;endArrow=none;endFill=0;" edge="1" parent="IDfedCf18PUgvVr4953q-1" source="IDfedCf18PUgvVr4953q-83" target="IDfedCf18PUgvVr4953q-48">
          <mxGeometry relative="1" as="geometry" />
        </mxCell>
        <mxCell id="IDfedCf18PUgvVr4953q-93" style="edgeStyle=orthogonalEdgeStyle;rounded=0;orthogonalLoop=1;jettySize=auto;html=1;exitX=0;exitY=0.25;exitDx=0;exitDy=0;exitPerimeter=0;fontSize=10;endArrow=none;endFill=0;" edge="1" parent="IDfedCf18PUgvVr4953q-1" source="IDfedCf18PUgvVr4953q-83">
          <mxGeometry relative="1" as="geometry">
            <mxPoint x="160" y="745" as="targetPoint" />
          </mxGeometry>
        </mxCell>
        <mxCell id="IDfedCf18PUgvVr4953q-94" style="edgeStyle=orthogonalEdgeStyle;rounded=0;orthogonalLoop=1;jettySize=auto;html=1;exitX=0;exitY=0.75;exitDx=0;exitDy=0;exitPerimeter=0;fontSize=10;endArrow=none;endFill=0;" edge="1" parent="IDfedCf18PUgvVr4953q-1" source="IDfedCf18PUgvVr4953q-83">
          <mxGeometry relative="1" as="geometry">
            <mxPoint x="450" y="775" as="targetPoint" />
          </mxGeometry>
        </mxCell>
        <mxCell id="IDfedCf18PUgvVr4953q-83" value="" style="verticalLabelPosition=bottom;shadow=0;dashed=0;align=center;html=1;verticalAlign=top;shape=mxgraph.electrical.logic_gates.logic_gate;operation=and;fontSize=10;" vertex="1" parent="IDfedCf18PUgvVr4953q-1">
          <mxGeometry x="470" y="730" width="100" height="60" as="geometry" />
        </mxCell>
        <mxCell id="IDfedCf18PUgvVr4953q-84" value="" style="endArrow=none;html=1;rounded=0;" edge="1" parent="IDfedCf18PUgvVr4953q-1">
          <mxGeometry width="50" height="50" relative="1" as="geometry">
            <mxPoint x="340" y="760" as="sourcePoint" />
            <mxPoint x="490" y="760" as="targetPoint" />
          </mxGeometry>
        </mxCell>
        <mxCell id="IDfedCf18PUgvVr4953q-95" style="edgeStyle=orthogonalEdgeStyle;rounded=0;orthogonalLoop=1;jettySize=auto;html=1;exitX=0;exitY=0.25;exitDx=0;exitDy=0;exitPerimeter=0;fontSize=10;endArrow=none;endFill=0;" edge="1" parent="IDfedCf18PUgvVr4953q-1" source="IDfedCf18PUgvVr4953q-85">
          <mxGeometry relative="1" as="geometry">
            <mxPoint x="160" y="825" as="targetPoint" />
          </mxGeometry>
        </mxCell>
        <mxCell id="IDfedCf18PUgvVr4953q-96" style="edgeStyle=orthogonalEdgeStyle;rounded=0;orthogonalLoop=1;jettySize=auto;html=1;exitX=0;exitY=0.75;exitDx=0;exitDy=0;exitPerimeter=0;fontSize=10;endArrow=none;endFill=0;" edge="1" parent="IDfedCf18PUgvVr4953q-1" source="IDfedCf18PUgvVr4953q-85">
          <mxGeometry relative="1" as="geometry">
            <mxPoint x="340" y="855" as="targetPoint" />
          </mxGeometry>
        </mxCell>
        <mxCell id="IDfedCf18PUgvVr4953q-85" value="" style="verticalLabelPosition=bottom;shadow=0;dashed=0;align=center;html=1;verticalAlign=top;shape=mxgraph.electrical.logic_gates.logic_gate;operation=and;fontSize=10;" vertex="1" parent="IDfedCf18PUgvVr4953q-1">
          <mxGeometry x="470" y="810" width="100" height="60" as="geometry" />
        </mxCell>
        <mxCell id="IDfedCf18PUgvVr4953q-86" value="" style="endArrow=none;html=1;rounded=0;" edge="1" parent="IDfedCf18PUgvVr4953q-1">
          <mxGeometry width="50" height="50" relative="1" as="geometry">
            <mxPoint x="270" y="840" as="sourcePoint" />
            <mxPoint x="490" y="840" as="targetPoint" />
          </mxGeometry>
        </mxCell>
      </root>
    </mxGraphModel>
  </diagram>
</mxfile>
